<?xml version="1.0" encoding="UTF-8" standalone="no"?>
<!DOCTYPE svg PUBLIC "-//W3C//DTD SVG 1.1//EN"
 "http://www.w3.org/Graphics/SVG/1.1/DTD/svg11.dtd">
<!-- Generated by graphviz version 2.40.1 (20161225.0304)
 -->
<!-- Title: dependencies Pages: 1 -->
<svg width="1051pt" height="284pt"
 viewBox="0.00 0.00 1051.00 284.00" xmlns="http://www.w3.org/2000/svg" xmlns:xlink="http://www.w3.org/1999/xlink">
<g id="graph0" class="graph" transform="scale(1 1) rotate(0) translate(4 280)">
<title>dependencies</title>
<polygon fill="#ffffff" stroke="transparent" points="-4,4 -4,-280 1047,-280 1047,4 -4,4"/>
<text text-anchor="start" x="500.5091" y="-42.4" font-family="sans-serif" font-weight="bold" font-size="14.00" fill="#000000">Legend</text>
<polygon fill="#ffffb3" stroke="transparent" points="287.5,-10 287.5,-30 307.5,-30 307.5,-10 287.5,-10"/>
<text text-anchor="start" x="311.129" y="-15.4" font-family="sans-serif" font-size="14.00" fill="#000000"> &#160;Declarations</text>
<polygon fill="#8dd3c7" stroke="transparent" points="400.5,-10 400.5,-30 420.5,-30 420.5,-10 400.5,-10"/>
<text text-anchor="start" x="424.2251" y="-15.4" font-family="sans-serif" font-size="14.00" fill="#000000"> &#160;Module</text>
<polygon fill="#80b1d3" stroke="transparent" points="486.5,-10 486.5,-30 506.5,-30 506.5,-10 486.5,-10"/>
<text text-anchor="start" x="510.2812" y="-15.4" font-family="sans-serif" font-size="14.00" fill="#000000"> &#160;Bootstrap</text>
<polygon fill="#fdb462" stroke="transparent" points="583.5,-10 583.5,-30 603.5,-30 603.5,-10 583.5,-10"/>
<text text-anchor="start" x="607.1732" y="-15.4" font-family="sans-serif" font-size="14.00" fill="#000000"> &#160;Providers</text>
<polygon fill="#fb8072" stroke="transparent" points="679.5,-10 679.5,-30 699.5,-30 699.5,-10 679.5,-10"/>
<text text-anchor="start" x="703.2258" y="-15.4" font-family="sans-serif" font-size="14.00" fill="#000000"> &#160;Exports</text>
<g id="clust1" class="cluster">
<title>cluster_SharedModule</title>
<polygon fill="none" stroke="#000000" stroke-dasharray="1,5" points="8,-70 8,-268 1035,-268 1035,-70 8,-70"/>
</g>
<g id="clust2" class="cluster">
<title>cluster_SharedModule_declarations</title>
<polygon fill="none" stroke="#000000" points="293,-78 293,-130 1027,-130 1027,-78 293,-78"/>
</g>
<g id="clust8" class="cluster">
<title>cluster_SharedModule_imports</title>
<polygon fill="none" stroke="#000000" points="16,-78 16,-130 285,-130 285,-78 16,-78"/>
</g>
<g id="clust9" class="cluster">
<title>cluster_SharedModule_exports</title>
<polygon fill="none" stroke="#000000" points="147,-208 147,-260 897,-260 897,-208 147,-208"/>
</g>
<!-- ErrorpageComponent -->
<g id="node1" class="node">
<title>ErrorpageComponent</title>
<polygon fill="#ffffb3" stroke="#000000" points="1018.7963,-122 881.2037,-122 881.2037,-86 1018.7963,-86 1018.7963,-122"/>
<text text-anchor="middle" x="950" y="-99.8" font-family="Times,serif" font-size="14.00" fill="#000000">ErrorpageComponent</text>
</g>
<!-- SharedModule -->
<g id="node6" class="node">
<title>SharedModule</title>
<polygon fill="#8dd3c7" stroke="#000000" points="553.4231,-187 550.4231,-191 529.4231,-191 526.4231,-187 454.5769,-187 454.5769,-151 553.4231,-151 553.4231,-187"/>
<text text-anchor="middle" x="504" y="-164.8" font-family="Times,serif" font-size="14.00" fill="#000000">SharedModule</text>
</g>
<!-- ErrorpageComponent&#45;&gt;SharedModule -->
<g id="edge1" class="edge">
<title>ErrorpageComponent&#45;&gt;SharedModule</title>
<path fill="none" stroke="#000000" d="M885.375,-122.1061C885.375,-141.3391 885.375,-169 885.375,-169 885.375,-169 563.4671,-169 563.4671,-169"/>
<polygon fill="#000000" stroke="#000000" points="563.4672,-165.5001 553.4671,-169 563.4671,-172.5001 563.4672,-165.5001"/>
</g>
<!-- FileUploadComponent -->
<g id="node2" class="node">
<title>FileUploadComponent</title>
<polygon fill="#ffffb3" stroke="#000000" points="863.323,-122 718.677,-122 718.677,-86 863.323,-86 863.323,-122"/>
<text text-anchor="middle" x="791" y="-99.8" font-family="Times,serif" font-size="14.00" fill="#000000">FileUploadComponent</text>
</g>
<!-- FileUploadComponent&#45;&gt;SharedModule -->
<g id="edge2" class="edge">
<title>FileUploadComponent&#45;&gt;SharedModule</title>
<path fill="none" stroke="#000000" d="M724.875,-122.0225C724.875,-139.3734 724.875,-163 724.875,-163 724.875,-163 563.2937,-163 563.2937,-163"/>
<polygon fill="#000000" stroke="#000000" points="563.2938,-159.5001 553.2937,-163 563.2937,-166.5001 563.2938,-159.5001"/>
</g>
<!-- FooterComponent -->
<g id="node3" class="node">
<title>FooterComponent</title>
<polygon fill="#ffffb3" stroke="#000000" points="700.8809,-122 583.1191,-122 583.1191,-86 700.8809,-86 700.8809,-122"/>
<text text-anchor="middle" x="642" y="-99.8" font-family="Times,serif" font-size="14.00" fill="#000000">FooterComponent</text>
</g>
<!-- FooterComponent&#45;&gt;SharedModule -->
<g id="edge3" class="edge">
<title>FooterComponent&#45;&gt;SharedModule</title>
<path fill="none" stroke="#000000" d="M661.6565,-122.2396C661.6565,-137.5706 661.6565,-157 661.6565,-157 661.6565,-157 563.4509,-157 563.4509,-157"/>
<polygon fill="#000000" stroke="#000000" points="563.451,-153.5001 553.4509,-157 563.4509,-160.5001 563.451,-153.5001"/>
</g>
<!-- HeaderComponent -->
<g id="node4" class="node">
<title>HeaderComponent</title>
<polygon fill="#ffffb3" stroke="#000000" points="564.7437,-122 443.2563,-122 443.2563,-86 564.7437,-86 564.7437,-122"/>
<text text-anchor="middle" x="504" y="-99.8" font-family="Times,serif" font-size="14.00" fill="#000000">HeaderComponent</text>
</g>
<!-- HeaderComponent&#45;&gt;SharedModule -->
<g id="edge4" class="edge">
<title>HeaderComponent&#45;&gt;SharedModule</title>
<path fill="none" stroke="#000000" d="M504,-122.1061C504,-122.1061 504,-140.991 504,-140.991"/>
<polygon fill="#000000" stroke="#000000" points="500.5001,-140.9909 504,-150.991 507.5001,-140.991 500.5001,-140.9909"/>
</g>
<!-- SidebarComponent -->
<g id="node5" class="node">
<title>SidebarComponent</title>
<polygon fill="#ffffb3" stroke="#000000" points="425.0954,-122 300.9046,-122 300.9046,-86 425.0954,-86 425.0954,-122"/>
<text text-anchor="middle" x="363" y="-99.8" font-family="Times,serif" font-size="14.00" fill="#000000">SidebarComponent</text>
</g>
<!-- SidebarComponent&#45;&gt;SharedModule -->
<g id="edge5" class="edge">
<title>SidebarComponent&#45;&gt;SharedModule</title>
<path fill="none" stroke="#000000" d="M383.6826,-122.2396C383.6826,-137.5706 383.6826,-157 383.6826,-157 383.6826,-157 444.7151,-157 444.7151,-157"/>
<polygon fill="#000000" stroke="#000000" points="444.7152,-160.5001 454.7151,-157 444.7151,-153.5001 444.7152,-160.5001"/>
</g>
<!-- ErrorpageComponent  -->
<g id="node9" class="node">
<title>ErrorpageComponent </title>
<polygon fill="#fb8072" stroke="#000000" points="889.2961,-252 748.7039,-252 748.7039,-216 889.2961,-216 889.2961,-252"/>
<text text-anchor="middle" x="819" y="-229.8" font-family="Times,serif" font-size="14.00" fill="#000000">ErrorpageComponent </text>
</g>
<!-- SharedModule&#45;&gt;ErrorpageComponent  -->
<g id="edge8" class="edge">
<title>SharedModule&#45;&gt;ErrorpageComponent </title>
<path fill="none" stroke="#000000" stroke-dasharray="5,2" d="M553.5116,-175C639.1546,-175 805.8817,-175 805.8817,-175 805.8817,-175 805.8817,-205.9775 805.8817,-205.9775"/>
<polygon fill="#000000" stroke="#000000" points="802.3817,-205.9774 805.8817,-215.9775 809.3817,-205.9775 802.3817,-205.9774"/>
</g>
<!-- FileUploadComponent  -->
<g id="node10" class="node">
<title>FileUploadComponent </title>
<polygon fill="#fb8072" stroke="#000000" points="730.8227,-252 583.1773,-252 583.1773,-216 730.8227,-216 730.8227,-252"/>
<text text-anchor="middle" x="657" y="-229.8" font-family="Times,serif" font-size="14.00" fill="#000000">FileUploadComponent </text>
</g>
<!-- SharedModule&#45;&gt;FileUploadComponent  -->
<g id="edge9" class="edge">
<title>SharedModule&#45;&gt;FileUploadComponent </title>
<path fill="none" stroke="#000000" stroke-dasharray="5,2" d="M553.5148,-181C585.9519,-181 622.3726,-181 622.3726,-181 622.3726,-181 622.3726,-205.7604 622.3726,-205.7604"/>
<polygon fill="#000000" stroke="#000000" points="618.8727,-205.7604 622.3726,-215.7604 625.8727,-205.7604 618.8727,-205.7604"/>
</g>
<!-- FooterComponent  -->
<g id="node11" class="node">
<title>FooterComponent </title>
<polygon fill="#fb8072" stroke="#000000" points="564.8814,-252 443.1186,-252 443.1186,-216 564.8814,-216 564.8814,-252"/>
<text text-anchor="middle" x="504" y="-229.8" font-family="Times,serif" font-size="14.00" fill="#000000">FooterComponent </text>
</g>
<!-- SharedModule&#45;&gt;FooterComponent  -->
<g id="edge10" class="edge">
<title>SharedModule&#45;&gt;FooterComponent </title>
<path fill="none" stroke="#000000" stroke-dasharray="5,2" d="M504,-187.1061C504,-187.1061 504,-205.991 504,-205.991"/>
<polygon fill="#000000" stroke="#000000" points="500.5001,-205.9909 504,-215.991 507.5001,-205.991 500.5001,-205.9909"/>
</g>
<!-- HeaderComponent  -->
<g id="node12" class="node">
<title>HeaderComponent </title>
<polygon fill="#fb8072" stroke="#000000" points="425.7436,-252 300.2564,-252 300.2564,-216 425.7436,-216 425.7436,-252"/>
<text text-anchor="middle" x="363" y="-229.8" font-family="Times,serif" font-size="14.00" fill="#000000">HeaderComponent </text>
</g>
<!-- SharedModule&#45;&gt;HeaderComponent  -->
<g id="edge11" class="edge">
<title>SharedModule&#45;&gt;HeaderComponent </title>
<path fill="none" stroke="#000000" stroke-dasharray="5,2" d="M454.6114,-181C407.0635,-181 342.3174,-181 342.3174,-181 342.3174,-181 342.3174,-205.7604 342.3174,-205.7604"/>
<polygon fill="#000000" stroke="#000000" points="338.8175,-205.7604 342.3174,-215.7604 345.8175,-205.7604 338.8175,-205.7604"/>
</g>
<!-- SidebarComponent  -->
<g id="node13" class="node">
<title>SidebarComponent </title>
<polygon fill="#fb8072" stroke="#000000" points="282.596,-252 155.404,-252 155.404,-216 282.596,-216 282.596,-252"/>
<text text-anchor="middle" x="219" y="-229.8" font-family="Times,serif" font-size="14.00" fill="#000000">SidebarComponent </text>
</g>
<!-- SharedModule&#45;&gt;SidebarComponent  -->
<g id="edge12" class="edge">
<title>SharedModule&#45;&gt;SidebarComponent </title>
<path fill="none" stroke="#000000" stroke-dasharray="5,2" d="M454.654,-175C377.4073,-175 236.6588,-175 236.6588,-175 236.6588,-175 236.6588,-205.9775 236.6588,-205.9775"/>
<polygon fill="#000000" stroke="#000000" points="233.1587,-205.9775 236.6588,-215.9775 240.1587,-205.9774 233.1587,-205.9775"/>
</g>
<!-- AppRoutingModule -->
<g id="node7" class="node">
<title>AppRoutingModule</title>
<polygon fill="#8dd3c7" stroke="#000000" points="277.2744,-122 274.2744,-126 253.2744,-126 250.2744,-122 148.7256,-122 148.7256,-86 277.2744,-86 277.2744,-122"/>
<text text-anchor="middle" x="213" y="-99.8" font-family="Times,serif" font-size="14.00" fill="#000000">AppRoutingModule</text>
</g>
<!-- AppRoutingModule&#45;&gt;SharedModule -->
<g id="edge6" class="edge">
<title>AppRoutingModule&#45;&gt;SharedModule</title>
<path fill="none" stroke="#000000" d="M195.9306,-122.0225C195.9306,-139.3734 195.9306,-163 195.9306,-163 195.9306,-163 444.5033,-163 444.5033,-163"/>
<polygon fill="#000000" stroke="#000000" points="444.5034,-166.5001 454.5033,-163 444.5033,-159.5001 444.5034,-166.5001"/>
</g>
<!-- MaterialModule -->
<g id="node8" class="node">
<title>MaterialModule</title>
<polygon fill="#8dd3c7" stroke="#000000" points="130.4706,-122 127.4706,-126 106.4706,-126 103.4706,-122 23.5294,-122 23.5294,-86 130.4706,-86 130.4706,-122"/>
<text text-anchor="middle" x="77" y="-99.8" font-family="Times,serif" font-size="14.00" fill="#000000">MaterialModule</text>
</g>
<!-- MaterialModule&#45;&gt;SharedModule -->
<g id="edge7" class="edge">
<title>MaterialModule&#45;&gt;SharedModule</title>
<path fill="none" stroke="#000000" d="M77,-122.1061C77,-141.3391 77,-169 77,-169 77,-169 444.6005,-169 444.6005,-169"/>
<polygon fill="#000000" stroke="#000000" points="444.6006,-172.5001 454.6005,-169 444.6005,-165.5001 444.6006,-172.5001"/>
</g>
</g>
</svg>
