<?xml version="1.0" encoding="UTF-8" standalone="no"?>
<!DOCTYPE svg PUBLIC "-//W3C//DTD SVG 1.1//EN"
 "http://www.w3.org/Graphics/SVG/1.1/DTD/svg11.dtd">
<!-- Generated by graphviz version 2.40.1 (20161225.0304)
 -->
<!-- Title: dependencies Pages: 1 -->
<svg width="2983pt" height="284pt"
 viewBox="0.00 0.00 2983.00 284.00" xmlns="http://www.w3.org/2000/svg" xmlns:xlink="http://www.w3.org/1999/xlink">
<g id="graph0" class="graph" transform="scale(1 1) rotate(0) translate(4 280)">
<title>dependencies</title>
<polygon fill="#ffffff" stroke="transparent" points="-4,4 -4,-280 2979,-280 2979,4 -4,4"/>
<text text-anchor="start" x="1466.5091" y="-42.4" font-family="sans-serif" font-weight="bold" font-size="14.00" fill="#000000">Legend</text>
<polygon fill="#ffffb3" stroke="transparent" points="1253.5,-10 1253.5,-30 1273.5,-30 1273.5,-10 1253.5,-10"/>
<text text-anchor="start" x="1277.129" y="-15.4" font-family="sans-serif" font-size="14.00" fill="#000000"> &#160;Declarations</text>
<polygon fill="#8dd3c7" stroke="transparent" points="1366.5,-10 1366.5,-30 1386.5,-30 1386.5,-10 1366.5,-10"/>
<text text-anchor="start" x="1390.2251" y="-15.4" font-family="sans-serif" font-size="14.00" fill="#000000"> &#160;Module</text>
<polygon fill="#80b1d3" stroke="transparent" points="1452.5,-10 1452.5,-30 1472.5,-30 1472.5,-10 1452.5,-10"/>
<text text-anchor="start" x="1476.2812" y="-15.4" font-family="sans-serif" font-size="14.00" fill="#000000"> &#160;Bootstrap</text>
<polygon fill="#fdb462" stroke="transparent" points="1549.5,-10 1549.5,-30 1569.5,-30 1569.5,-10 1549.5,-10"/>
<text text-anchor="start" x="1573.1732" y="-15.4" font-family="sans-serif" font-size="14.00" fill="#000000"> &#160;Providers</text>
<polygon fill="#fb8072" stroke="transparent" points="1645.5,-10 1645.5,-30 1665.5,-30 1665.5,-10 1645.5,-10"/>
<text text-anchor="start" x="1669.2258" y="-15.4" font-family="sans-serif" font-size="14.00" fill="#000000"> &#160;Exports</text>
<g id="clust1" class="cluster">
<title>cluster_AppModule</title>
<polygon fill="none" stroke="#000000" stroke-dasharray="1,5" points="8,-70 8,-268 2967,-268 2967,-70 8,-70"/>
</g>
<g id="clust2" class="cluster">
<title>cluster_AppModule_declarations</title>
<polygon fill="none" stroke="#000000" points="1048,-78 1048,-130 2959,-130 2959,-78 1048,-78"/>
</g>
<g id="clust16" class="cluster">
<title>cluster_AppModule_imports</title>
<polygon fill="none" stroke="#000000" points="771,-78 771,-130 1040,-130 1040,-78 771,-78"/>
</g>
<g id="clust18" class="cluster">
<title>cluster_AppModule_bootstrap</title>
<polygon fill="none" stroke="#000000" points="1538,-208 1538,-260 1662,-260 1662,-208 1538,-208"/>
</g>
<g id="clust19" class="cluster">
<title>cluster_AppModule_providers</title>
<polygon fill="none" stroke="#000000" points="16,-78 16,-130 763,-130 763,-78 16,-78"/>
</g>
<!-- AppComponent -->
<g id="node1" class="node">
<title>AppComponent</title>
<polygon fill="#ffffb3" stroke="#000000" points="2950.9399,-122 2845.0601,-122 2845.0601,-86 2950.9399,-86 2950.9399,-122"/>
<text text-anchor="middle" x="2898" y="-99.8" font-family="Times,serif" font-size="14.00" fill="#000000">AppComponent</text>
</g>
<!-- AppModule -->
<g id="node14" class="node">
<title>AppModule</title>
<polygon fill="#8dd3c7" stroke="#000000" points="1641.6571,-187 1638.6571,-191 1617.6571,-191 1614.6571,-187 1558.3429,-187 1558.3429,-151 1641.6571,-151 1641.6571,-187"/>
<text text-anchor="middle" x="1600" y="-164.8" font-family="Times,serif" font-size="14.00" fill="#000000">AppModule</text>
</g>
<!-- AppComponent&#45;&gt;AppModule -->
<g id="edge1" class="edge">
<title>AppComponent&#45;&gt;AppModule</title>
<path fill="none" stroke="#000000" d="M2898,-122.1532C2898,-145.7566 2898,-184 2898,-184 2898,-184 1651.7167,-184 1651.7167,-184"/>
<polygon fill="#000000" stroke="#000000" points="1651.7167,-180.5001 1641.7167,-184 1651.7166,-187.5001 1651.7167,-180.5001"/>
</g>
<!-- BingMapComponent -->
<g id="node2" class="node">
<title>BingMapComponent</title>
<polygon fill="#ffffb3" stroke="#000000" points="2827.219,-122 2692.781,-122 2692.781,-86 2827.219,-86 2827.219,-122"/>
<text text-anchor="middle" x="2760" y="-99.8" font-family="Times,serif" font-size="14.00" fill="#000000">BingMapComponent</text>
</g>
<!-- BingMapComponent&#45;&gt;AppModule -->
<g id="edge2" class="edge">
<title>BingMapComponent&#45;&gt;AppModule</title>
<path fill="none" stroke="#000000" d="M2760,-122.0109C2760,-144.4852 2760,-180 2760,-180 2760,-180 1651.9703,-180 1651.9703,-180"/>
<polygon fill="#000000" stroke="#000000" points="1651.9704,-176.5001 1641.9703,-180 1651.9703,-183.5001 1651.9704,-176.5001"/>
</g>
<!-- DashboardComponent -->
<g id="node3" class="node">
<title>DashboardComponent</title>
<polygon fill="#ffffb3" stroke="#000000" points="2674.9734,-122 2533.0266,-122 2533.0266,-86 2674.9734,-86 2674.9734,-122"/>
<text text-anchor="middle" x="2604" y="-99.8" font-family="Times,serif" font-size="14.00" fill="#000000">DashboardComponent</text>
</g>
<!-- DashboardComponent&#45;&gt;AppModule -->
<g id="edge3" class="edge">
<title>DashboardComponent&#45;&gt;AppModule</title>
<path fill="none" stroke="#000000" d="M2604,-122.0449C2604,-143.6623 2604,-177 2604,-177 2604,-177 1651.8624,-177 1651.8624,-177"/>
<polygon fill="#000000" stroke="#000000" points="1651.8624,-173.5001 1641.8624,-177 1651.8624,-180.5001 1651.8624,-173.5001"/>
</g>
<!-- DataComponent -->
<g id="node4" class="node">
<title>DataComponent</title>
<polygon fill="#ffffb3" stroke="#000000" points="2514.7591,-122 2407.2409,-122 2407.2409,-86 2514.7591,-86 2514.7591,-122"/>
<text text-anchor="middle" x="2461" y="-99.8" font-family="Times,serif" font-size="14.00" fill="#000000">DataComponent</text>
</g>
<!-- DataComponent&#45;&gt;AppModule -->
<g id="edge4" class="edge">
<title>DataComponent&#45;&gt;AppModule</title>
<path fill="none" stroke="#000000" d="M2461,-122.1289C2461,-142.5724 2461,-173 2461,-173 2461,-173 1651.8188,-173 1651.8188,-173"/>
<polygon fill="#000000" stroke="#000000" points="1651.8188,-169.5001 1641.8188,-173 1651.8188,-176.5001 1651.8188,-169.5001"/>
</g>
<!-- FooterComponent -->
<g id="node5" class="node">
<title>FooterComponent</title>
<polygon fill="#ffffb3" stroke="#000000" points="2388.8809,-122 2271.1191,-122 2271.1191,-86 2388.8809,-86 2388.8809,-122"/>
<text text-anchor="middle" x="2330" y="-99.8" font-family="Times,serif" font-size="14.00" fill="#000000">FooterComponent</text>
</g>
<!-- FooterComponent&#45;&gt;AppModule -->
<g id="edge5" class="edge">
<title>FooterComponent&#45;&gt;AppModule</title>
<path fill="none" stroke="#000000" d="M2330,-122.1061C2330,-141.3391 2330,-169 2330,-169 2330,-169 1651.8699,-169 1651.8699,-169"/>
<polygon fill="#000000" stroke="#000000" points="1651.8699,-165.5001 1641.8699,-169 1651.8699,-172.5001 1651.8699,-165.5001"/>
</g>
<!-- GeneralCardsComponent -->
<g id="node6" class="node">
<title>GeneralCardsComponent</title>
<polygon fill="#ffffb3" stroke="#000000" points="2253.2907,-122 2094.7093,-122 2094.7093,-86 2253.2907,-86 2253.2907,-122"/>
<text text-anchor="middle" x="2174" y="-99.8" font-family="Times,serif" font-size="14.00" fill="#000000">GeneralCardsComponent</text>
</g>
<!-- GeneralCardsComponent&#45;&gt;AppModule -->
<g id="edge6" class="edge">
<title>GeneralCardsComponent&#45;&gt;AppModule</title>
<path fill="none" stroke="#000000" d="M2174,-122.2667C2174,-140.5552 2174,-166 2174,-166 2174,-166 1651.743,-166 1651.743,-166"/>
<polygon fill="#000000" stroke="#000000" points="1651.7431,-162.5001 1641.743,-166 1651.743,-169.5001 1651.7431,-162.5001"/>
</g>
<!-- GroupComponent -->
<g id="node7" class="node">
<title>GroupComponent</title>
<polygon fill="#ffffb3" stroke="#000000" points="2076.5996,-122 1959.4004,-122 1959.4004,-86 2076.5996,-86 2076.5996,-122"/>
<text text-anchor="middle" x="2018" y="-99.8" font-family="Times,serif" font-size="14.00" fill="#000000">GroupComponent</text>
</g>
<!-- GroupComponent&#45;&gt;AppModule -->
<g id="edge7" class="edge">
<title>GroupComponent&#45;&gt;AppModule</title>
<path fill="none" stroke="#000000" d="M2018,-122.0336C2018,-139.0597 2018,-162 2018,-162 2018,-162 1651.9933,-162 1651.9933,-162"/>
<polygon fill="#000000" stroke="#000000" points="1651.9933,-158.5001 1641.9933,-162 1651.9932,-165.5001 1651.9933,-158.5001"/>
</g>
<!-- HomeComponent -->
<g id="node8" class="node">
<title>HomeComponent</title>
<polygon fill="#ffffb3" stroke="#000000" points="1941.5451,-122 1826.4549,-122 1826.4549,-86 1941.5451,-86 1941.5451,-122"/>
<text text-anchor="middle" x="1884" y="-99.8" font-family="Times,serif" font-size="14.00" fill="#000000">HomeComponent</text>
</g>
<!-- HomeComponent&#45;&gt;AppModule -->
<g id="edge8" class="edge">
<title>HomeComponent&#45;&gt;AppModule</title>
<path fill="none" stroke="#000000" d="M1884,-122.0091C1884,-138.0494 1884,-159 1884,-159 1884,-159 1651.9052,-159 1651.9052,-159"/>
<polygon fill="#000000" stroke="#000000" points="1651.9052,-155.5001 1641.9052,-159 1651.9051,-162.5001 1651.9052,-155.5001"/>
</g>
<!-- LoginComponent -->
<g id="node9" class="node">
<title>LoginComponent</title>
<polygon fill="#ffffb3" stroke="#000000" points="1808.2758,-122 1693.7242,-122 1693.7242,-86 1808.2758,-86 1808.2758,-122"/>
<text text-anchor="middle" x="1751" y="-99.8" font-family="Times,serif" font-size="14.00" fill="#000000">LoginComponent</text>
</g>
<!-- LoginComponent&#45;&gt;AppModule -->
<g id="edge9" class="edge">
<title>LoginComponent&#45;&gt;AppModule</title>
<path fill="none" stroke="#000000" d="M1751,-122.1243C1751,-136.7832 1751,-155 1751,-155 1751,-155 1651.6611,-155 1651.6611,-155"/>
<polygon fill="#000000" stroke="#000000" points="1651.6612,-151.5001 1641.6611,-155 1651.6611,-158.5001 1651.6612,-151.5001"/>
</g>
<!-- MapOverlayComponent -->
<g id="node10" class="node">
<title>MapOverlayComponent</title>
<polygon fill="#ffffb3" stroke="#000000" points="1676.0786,-122 1523.9214,-122 1523.9214,-86 1676.0786,-86 1676.0786,-122"/>
<text text-anchor="middle" x="1600" y="-99.8" font-family="Times,serif" font-size="14.00" fill="#000000">MapOverlayComponent</text>
</g>
<!-- MapOverlayComponent&#45;&gt;AppModule -->
<g id="edge10" class="edge">
<title>MapOverlayComponent&#45;&gt;AppModule</title>
<path fill="none" stroke="#000000" d="M1600,-122.1061C1600,-122.1061 1600,-140.991 1600,-140.991"/>
<polygon fill="#000000" stroke="#000000" points="1596.5001,-140.9909 1600,-150.991 1603.5001,-140.991 1596.5001,-140.9909"/>
</g>
<!-- MapSettingsComponent -->
<g id="node11" class="node">
<title>MapSettingsComponent</title>
<polygon fill="#ffffb3" stroke="#000000" points="1506.1052,-122 1353.8948,-122 1353.8948,-86 1506.1052,-86 1506.1052,-122"/>
<text text-anchor="middle" x="1430" y="-99.8" font-family="Times,serif" font-size="14.00" fill="#000000">MapSettingsComponent</text>
</g>
<!-- MapSettingsComponent&#45;&gt;AppModule -->
<g id="edge11" class="edge">
<title>MapSettingsComponent&#45;&gt;AppModule</title>
<path fill="none" stroke="#000000" d="M1430,-122.1243C1430,-136.7832 1430,-155 1430,-155 1430,-155 1547.9775,-155 1547.9775,-155"/>
<polygon fill="#000000" stroke="#000000" points="1547.9776,-158.5001 1557.9775,-155 1547.9775,-151.5001 1547.9776,-158.5001"/>
</g>
<!-- OverviewComponent -->
<g id="node12" class="node">
<title>OverviewComponent</title>
<polygon fill="#ffffb3" stroke="#000000" points="1336.0268,-122 1199.9732,-122 1199.9732,-86 1336.0268,-86 1336.0268,-122"/>
<text text-anchor="middle" x="1268" y="-99.8" font-family="Times,serif" font-size="14.00" fill="#000000">OverviewComponent</text>
</g>
<!-- OverviewComponent&#45;&gt;AppModule -->
<g id="edge12" class="edge">
<title>OverviewComponent&#45;&gt;AppModule</title>
<path fill="none" stroke="#000000" d="M1268,-122.0091C1268,-138.0494 1268,-159 1268,-159 1268,-159 1548.2881,-159 1548.2881,-159"/>
<polygon fill="#000000" stroke="#000000" points="1548.2882,-162.5001 1558.2881,-159 1548.2881,-155.5001 1548.2882,-162.5001"/>
</g>
<!-- SettingsComponent -->
<g id="node13" class="node">
<title>SettingsComponent</title>
<polygon fill="#ffffb3" stroke="#000000" points="1182.4468,-122 1055.5532,-122 1055.5532,-86 1182.4468,-86 1182.4468,-122"/>
<text text-anchor="middle" x="1119" y="-99.8" font-family="Times,serif" font-size="14.00" fill="#000000">SettingsComponent</text>
</g>
<!-- SettingsComponent&#45;&gt;AppModule -->
<g id="edge13" class="edge">
<title>SettingsComponent&#45;&gt;AppModule</title>
<path fill="none" stroke="#000000" d="M1119,-122.0336C1119,-139.0597 1119,-162 1119,-162 1119,-162 1548.1558,-162 1548.1558,-162"/>
<polygon fill="#000000" stroke="#000000" points="1548.1559,-165.5001 1558.1558,-162 1548.1558,-158.5001 1548.1559,-165.5001"/>
</g>
<!-- AppComponent  -->
<g id="node17" class="node">
<title>AppComponent </title>
<polygon fill="#80b1d3" stroke="#000000" points="1654.439,-252 1545.561,-252 1545.561,-216 1654.439,-216 1654.439,-252"/>
<text text-anchor="middle" x="1600" y="-229.8" font-family="Times,serif" font-size="14.00" fill="#000000">AppComponent </text>
</g>
<!-- AppModule&#45;&gt;AppComponent  -->
<g id="edge16" class="edge">
<title>AppModule&#45;&gt;AppComponent </title>
<path fill="none" stroke="#000000" stroke-dasharray="1,5" d="M1600,-187.1061C1600,-187.1061 1600,-205.991 1600,-205.991"/>
<polygon fill="#000000" stroke="#000000" points="1596.5001,-205.9909 1600,-215.991 1603.5001,-205.991 1596.5001,-205.9909"/>
</g>
<!-- AppRoutingModule -->
<g id="node15" class="node">
<title>AppRoutingModule</title>
<polygon fill="#8dd3c7" stroke="#000000" points="1032.2744,-122 1029.2744,-126 1008.2744,-126 1005.2744,-122 903.7256,-122 903.7256,-86 1032.2744,-86 1032.2744,-122"/>
<text text-anchor="middle" x="968" y="-99.8" font-family="Times,serif" font-size="14.00" fill="#000000">AppRoutingModule</text>
</g>
<!-- AppRoutingModule&#45;&gt;AppModule -->
<g id="edge14" class="edge">
<title>AppRoutingModule&#45;&gt;AppModule</title>
<path fill="none" stroke="#000000" d="M968,-122.2667C968,-140.5552 968,-166 968,-166 968,-166 1548.0433,-166 1548.0433,-166"/>
<polygon fill="#000000" stroke="#000000" points="1548.0433,-169.5001 1558.0433,-166 1548.0432,-162.5001 1548.0433,-169.5001"/>
</g>
<!-- MaterialModule -->
<g id="node16" class="node">
<title>MaterialModule</title>
<polygon fill="#8dd3c7" stroke="#000000" points="885.4706,-122 882.4706,-126 861.4706,-126 858.4706,-122 778.5294,-122 778.5294,-86 885.4706,-86 885.4706,-122"/>
<text text-anchor="middle" x="832" y="-99.8" font-family="Times,serif" font-size="14.00" fill="#000000">MaterialModule</text>
</g>
<!-- MaterialModule&#45;&gt;AppModule -->
<g id="edge15" class="edge">
<title>MaterialModule&#45;&gt;AppModule</title>
<path fill="none" stroke="#000000" d="M832,-122.1061C832,-141.3391 832,-169 832,-169 832,-169 1548.1636,-169 1548.1636,-169"/>
<polygon fill="#000000" stroke="#000000" points="1548.1636,-172.5001 1558.1636,-169 1548.1635,-165.5001 1548.1636,-172.5001"/>
</g>
<!-- BingApiLoaderService -->
<g id="node18" class="node">
<title>BingApiLoaderService</title>
<ellipse fill="#fdb462" stroke="#000000" cx="654" cy="-104" rx="100.7017" ry="18"/>
<text text-anchor="middle" x="654" y="-99.8" font-family="Times,serif" font-size="14.00" fill="#000000">BingApiLoaderService</text>
</g>
<!-- BingApiLoaderService&#45;&gt;AppModule -->
<g id="edge17" class="edge">
<title>BingApiLoaderService&#45;&gt;AppModule</title>
<path fill="none" stroke="#000000" d="M654,-122.1289C654,-142.5724 654,-173 654,-173 654,-173 1548.1309,-173 1548.1309,-173"/>
<polygon fill="#000000" stroke="#000000" points="1548.131,-176.5001 1558.1309,-173 1548.1309,-169.5001 1548.131,-176.5001"/>
</g>
<!-- ErrorInterceptor -->
<g id="node19" class="node">
<title>ErrorInterceptor</title>
<ellipse fill="#fdb462" stroke="#000000" cx="462" cy="-104" rx="73.5329" ry="18"/>
<text text-anchor="middle" x="462" y="-99.8" font-family="Times,serif" font-size="14.00" fill="#000000">ErrorInterceptor</text>
</g>
<!-- ErrorInterceptor&#45;&gt;AppModule -->
<g id="edge18" class="edge">
<title>ErrorInterceptor&#45;&gt;AppModule</title>
<path fill="none" stroke="#000000" d="M462,-122.0449C462,-143.6623 462,-177 462,-177 462,-177 1548.1483,-177 1548.1483,-177"/>
<polygon fill="#000000" stroke="#000000" points="1548.1484,-180.5001 1558.1483,-177 1548.1483,-173.5001 1548.1484,-180.5001"/>
</g>
<!-- JwtInterceptor -->
<g id="node20" class="node">
<title>JwtInterceptor</title>
<ellipse fill="#fdb462" stroke="#000000" cx="303" cy="-104" rx="66.6094" ry="18"/>
<text text-anchor="middle" x="303" y="-99.8" font-family="Times,serif" font-size="14.00" fill="#000000">JwtInterceptor</text>
</g>
<!-- JwtInterceptor&#45;&gt;AppModule -->
<g id="edge19" class="edge">
<title>JwtInterceptor&#45;&gt;AppModule</title>
<path fill="none" stroke="#000000" d="M303,-122.0109C303,-144.4852 303,-180 303,-180 303,-180 1548.3155,-180 1548.3155,-180"/>
<polygon fill="#000000" stroke="#000000" points="1548.3155,-183.5001 1558.3155,-180 1548.3154,-176.5001 1548.3155,-183.5001"/>
</g>
<!-- SiteConditionsService -->
<g id="node21" class="node">
<title>SiteConditionsService</title>
<ellipse fill="#fdb462" stroke="#000000" cx="121" cy="-104" rx="97.3069" ry="18"/>
<text text-anchor="middle" x="121" y="-99.8" font-family="Times,serif" font-size="14.00" fill="#000000">SiteConditionsService</text>
</g>
<!-- SiteConditionsService&#45;&gt;AppModule -->
<g id="edge20" class="edge">
<title>SiteConditionsService&#45;&gt;AppModule</title>
<path fill="none" stroke="#000000" d="M121,-122.1532C121,-145.7566 121,-184 121,-184 121,-184 1548.1188,-184 1548.1188,-184"/>
<polygon fill="#000000" stroke="#000000" points="1548.1189,-187.5001 1558.1188,-184 1548.1188,-180.5001 1548.1189,-187.5001"/>
</g>
</g>
</svg>
