<?xml version="1.0" encoding="UTF-8" standalone="no"?>
<!DOCTYPE svg PUBLIC "-//W3C//DTD SVG 1.1//EN"
 "http://www.w3.org/Graphics/SVG/1.1/DTD/svg11.dtd">
<!-- Generated by graphviz version 2.40.1 (20161225.0304)
 -->
<!-- Title: dependencies Pages: 1 -->
<svg width="2105pt" height="284pt"
 viewBox="0.00 0.00 2105.00 284.00" xmlns="http://www.w3.org/2000/svg" xmlns:xlink="http://www.w3.org/1999/xlink">
<g id="graph0" class="graph" transform="scale(1 1) rotate(0) translate(4 280)">
<title>dependencies</title>
<polygon fill="#ffffff" stroke="transparent" points="-4,4 -4,-280 2101,-280 2101,4 -4,4"/>
<text text-anchor="start" x="1027.5091" y="-42.4" font-family="sans-serif" font-weight="bold" font-size="14.00" fill="#000000">Legend</text>
<polygon fill="#ffffb3" stroke="transparent" points="814.5,-10 814.5,-30 834.5,-30 834.5,-10 814.5,-10"/>
<text text-anchor="start" x="838.129" y="-15.4" font-family="sans-serif" font-size="14.00" fill="#000000"> &#160;Declarations</text>
<polygon fill="#8dd3c7" stroke="transparent" points="927.5,-10 927.5,-30 947.5,-30 947.5,-10 927.5,-10"/>
<text text-anchor="start" x="951.2251" y="-15.4" font-family="sans-serif" font-size="14.00" fill="#000000"> &#160;Module</text>
<polygon fill="#80b1d3" stroke="transparent" points="1013.5,-10 1013.5,-30 1033.5,-30 1033.5,-10 1013.5,-10"/>
<text text-anchor="start" x="1037.2812" y="-15.4" font-family="sans-serif" font-size="14.00" fill="#000000"> &#160;Bootstrap</text>
<polygon fill="#fdb462" stroke="transparent" points="1110.5,-10 1110.5,-30 1130.5,-30 1130.5,-10 1110.5,-10"/>
<text text-anchor="start" x="1134.1732" y="-15.4" font-family="sans-serif" font-size="14.00" fill="#000000"> &#160;Providers</text>
<polygon fill="#fb8072" stroke="transparent" points="1206.5,-10 1206.5,-30 1226.5,-30 1226.5,-10 1206.5,-10"/>
<text text-anchor="start" x="1230.2258" y="-15.4" font-family="sans-serif" font-size="14.00" fill="#000000"> &#160;Exports</text>
<g id="clust1" class="cluster">
<title>cluster_AppModule</title>
<polygon fill="none" stroke="#000000" stroke-dasharray="1,5" points="8,-70 8,-268 2089,-268 2089,-70 8,-70"/>
</g>
<g id="clust2" class="cluster">
<title>cluster_AppModule_declarations</title>
<polygon fill="none" stroke="#000000" points="731,-78 731,-130 2081,-130 2081,-78 731,-78"/>
</g>
<g id="clust12" class="cluster">
<title>cluster_AppModule_imports</title>
<polygon fill="none" stroke="#000000" points="454,-78 454,-130 723,-130 723,-78 454,-78"/>
</g>
<g id="clust14" class="cluster">
<title>cluster_AppModule_bootstrap</title>
<polygon fill="none" stroke="#000000" points="1051,-208 1051,-260 1175,-260 1175,-208 1051,-208"/>
</g>
<g id="clust15" class="cluster">
<title>cluster_AppModule_providers</title>
<polygon fill="none" stroke="#000000" points="16,-78 16,-130 446,-130 446,-78 16,-78"/>
</g>
<!-- AppComponent -->
<g id="node1" class="node">
<title>AppComponent</title>
<polygon fill="#ffffb3" stroke="#000000" points="2072.9399,-122 1967.0601,-122 1967.0601,-86 2072.9399,-86 2072.9399,-122"/>
<text text-anchor="middle" x="2020" y="-99.8" font-family="Times,serif" font-size="14.00" fill="#000000">AppComponent</text>
</g>
<!-- AppModule -->
<g id="node10" class="node">
<title>AppModule</title>
<polygon fill="#8dd3c7" stroke="#000000" points="1154.6571,-187 1151.6571,-191 1130.6571,-191 1127.6571,-187 1071.3429,-187 1071.3429,-151 1154.6571,-151 1154.6571,-187"/>
<text text-anchor="middle" x="1113" y="-164.8" font-family="Times,serif" font-size="14.00" fill="#000000">AppModule</text>
</g>
<!-- AppComponent&#45;&gt;AppModule -->
<g id="edge1" class="edge">
<title>AppComponent&#45;&gt;AppModule</title>
<path fill="none" stroke="#000000" d="M2020,-122.0908C2020,-145.1328 2020,-182 2020,-182 2020,-182 1164.9274,-182 1164.9274,-182"/>
<polygon fill="#000000" stroke="#000000" points="1164.9275,-178.5001 1154.9274,-182 1164.9274,-185.5001 1164.9275,-178.5001"/>
</g>
<!-- BingMapComponent -->
<g id="node2" class="node">
<title>BingMapComponent</title>
<polygon fill="#ffffb3" stroke="#000000" points="1949.219,-122 1814.781,-122 1814.781,-86 1949.219,-86 1949.219,-122"/>
<text text-anchor="middle" x="1882" y="-99.8" font-family="Times,serif" font-size="14.00" fill="#000000">BingMapComponent</text>
</g>
<!-- BingMapComponent&#45;&gt;AppModule -->
<g id="edge2" class="edge">
<title>BingMapComponent&#45;&gt;AppModule</title>
<path fill="none" stroke="#000000" d="M1882,-122.0449C1882,-143.6623 1882,-177 1882,-177 1882,-177 1164.8909,-177 1164.8909,-177"/>
<polygon fill="#000000" stroke="#000000" points="1164.8909,-173.5001 1154.8909,-177 1164.8909,-180.5001 1164.8909,-173.5001"/>
</g>
<!-- DataComponent -->
<g id="node3" class="node">
<title>DataComponent</title>
<polygon fill="#ffffb3" stroke="#000000" points="1796.7591,-122 1689.2409,-122 1689.2409,-86 1796.7591,-86 1796.7591,-122"/>
<text text-anchor="middle" x="1743" y="-99.8" font-family="Times,serif" font-size="14.00" fill="#000000">DataComponent</text>
</g>
<!-- DataComponent&#45;&gt;AppModule -->
<g id="edge3" class="edge">
<title>DataComponent&#45;&gt;AppModule</title>
<path fill="none" stroke="#000000" d="M1743,-122.2228C1743,-142.3652 1743,-172 1743,-172 1743,-172 1164.824,-172 1164.824,-172"/>
<polygon fill="#000000" stroke="#000000" points="1164.824,-168.5001 1154.824,-172 1164.8239,-175.5001 1164.824,-168.5001"/>
</g>
<!-- GeneralCardsComponent -->
<g id="node4" class="node">
<title>GeneralCardsComponent</title>
<polygon fill="#ffffb3" stroke="#000000" points="1671.2907,-122 1512.7093,-122 1512.7093,-86 1671.2907,-86 1671.2907,-122"/>
<text text-anchor="middle" x="1592" y="-99.8" font-family="Times,serif" font-size="14.00" fill="#000000">GeneralCardsComponent</text>
</g>
<!-- GeneralCardsComponent&#45;&gt;AppModule -->
<g id="edge4" class="edge">
<title>GeneralCardsComponent&#45;&gt;AppModule</title>
<path fill="none" stroke="#000000" d="M1592,-122.2222C1592,-140.8285 1592,-167 1592,-167 1592,-167 1164.6702,-167 1164.6702,-167"/>
<polygon fill="#000000" stroke="#000000" points="1164.6702,-163.5001 1154.6702,-167 1164.6701,-170.5001 1164.6702,-163.5001"/>
</g>
<!-- GroupComponent -->
<g id="node5" class="node">
<title>GroupComponent</title>
<polygon fill="#ffffb3" stroke="#000000" points="1494.5996,-122 1377.4004,-122 1377.4004,-86 1494.5996,-86 1494.5996,-122"/>
<text text-anchor="middle" x="1436" y="-99.8" font-family="Times,serif" font-size="14.00" fill="#000000">GroupComponent</text>
</g>
<!-- GroupComponent&#45;&gt;AppModule -->
<g id="edge5" class="edge">
<title>GroupComponent&#45;&gt;AppModule</title>
<path fill="none" stroke="#000000" d="M1436,-122.0336C1436,-139.0597 1436,-162 1436,-162 1436,-162 1164.8955,-162 1164.8955,-162"/>
<polygon fill="#000000" stroke="#000000" points="1164.8955,-158.5001 1154.8955,-162 1164.8954,-165.5001 1164.8955,-158.5001"/>
</g>
<!-- MapOverlayComponent -->
<g id="node6" class="node">
<title>MapOverlayComponent</title>
<polygon fill="#ffffb3" stroke="#000000" points="1359.0786,-122 1206.9214,-122 1206.9214,-86 1359.0786,-86 1359.0786,-122"/>
<text text-anchor="middle" x="1283" y="-99.8" font-family="Times,serif" font-size="14.00" fill="#000000">MapOverlayComponent</text>
</g>
<!-- MapOverlayComponent&#45;&gt;AppModule -->
<g id="edge6" class="edge">
<title>MapOverlayComponent&#45;&gt;AppModule</title>
<path fill="none" stroke="#000000" d="M1283,-122.2396C1283,-137.5706 1283,-157 1283,-157 1283,-157 1165.0225,-157 1165.0225,-157"/>
<polygon fill="#000000" stroke="#000000" points="1165.0225,-153.5001 1155.0225,-157 1165.0224,-160.5001 1165.0225,-153.5001"/>
</g>
<!-- MapSettingsComponent -->
<g id="node7" class="node">
<title>MapSettingsComponent</title>
<polygon fill="#ffffb3" stroke="#000000" points="1189.1052,-122 1036.8948,-122 1036.8948,-86 1189.1052,-86 1189.1052,-122"/>
<text text-anchor="middle" x="1113" y="-99.8" font-family="Times,serif" font-size="14.00" fill="#000000">MapSettingsComponent</text>
</g>
<!-- MapSettingsComponent&#45;&gt;AppModule -->
<g id="edge7" class="edge">
<title>MapSettingsComponent&#45;&gt;AppModule</title>
<path fill="none" stroke="#000000" d="M1113,-122.1061C1113,-122.1061 1113,-140.991 1113,-140.991"/>
<polygon fill="#000000" stroke="#000000" points="1109.5001,-140.9909 1113,-150.991 1116.5001,-140.991 1109.5001,-140.9909"/>
</g>
<!-- OverviewComponent -->
<g id="node8" class="node">
<title>OverviewComponent</title>
<polygon fill="#ffffb3" stroke="#000000" points="1019.0268,-122 882.9732,-122 882.9732,-86 1019.0268,-86 1019.0268,-122"/>
<text text-anchor="middle" x="951" y="-99.8" font-family="Times,serif" font-size="14.00" fill="#000000">OverviewComponent</text>
</g>
<!-- OverviewComponent&#45;&gt;AppModule -->
<g id="edge8" class="edge">
<title>OverviewComponent&#45;&gt;AppModule</title>
<path fill="none" stroke="#000000" d="M951,-122.2396C951,-137.5706 951,-157 951,-157 951,-157 1061.281,-157 1061.281,-157"/>
<polygon fill="#000000" stroke="#000000" points="1061.281,-160.5001 1071.281,-157 1061.2809,-153.5001 1061.281,-160.5001"/>
</g>
<!-- SettingsComponent -->
<g id="node9" class="node">
<title>SettingsComponent</title>
<polygon fill="#ffffb3" stroke="#000000" points="865.4468,-122 738.5532,-122 738.5532,-86 865.4468,-86 865.4468,-122"/>
<text text-anchor="middle" x="802" y="-99.8" font-family="Times,serif" font-size="14.00" fill="#000000">SettingsComponent</text>
</g>
<!-- SettingsComponent&#45;&gt;AppModule -->
<g id="edge9" class="edge">
<title>SettingsComponent&#45;&gt;AppModule</title>
<path fill="none" stroke="#000000" d="M802,-122.0336C802,-139.0597 802,-162 802,-162 802,-162 1061.0572,-162 1061.0572,-162"/>
<polygon fill="#000000" stroke="#000000" points="1061.0572,-165.5001 1071.0572,-162 1061.0571,-158.5001 1061.0572,-165.5001"/>
</g>
<!-- AppComponent  -->
<g id="node13" class="node">
<title>AppComponent </title>
<polygon fill="#80b1d3" stroke="#000000" points="1167.439,-252 1058.561,-252 1058.561,-216 1167.439,-216 1167.439,-252"/>
<text text-anchor="middle" x="1113" y="-229.8" font-family="Times,serif" font-size="14.00" fill="#000000">AppComponent </text>
</g>
<!-- AppModule&#45;&gt;AppComponent  -->
<g id="edge12" class="edge">
<title>AppModule&#45;&gt;AppComponent </title>
<path fill="none" stroke="#000000" stroke-dasharray="1,5" d="M1113,-187.1061C1113,-187.1061 1113,-205.991 1113,-205.991"/>
<polygon fill="#000000" stroke="#000000" points="1109.5001,-205.9909 1113,-215.991 1116.5001,-205.991 1109.5001,-205.9909"/>
</g>
<!-- AppRoutingModule -->
<g id="node11" class="node">
<title>AppRoutingModule</title>
<polygon fill="#8dd3c7" stroke="#000000" points="715.2744,-122 712.2744,-126 691.2744,-126 688.2744,-122 586.7256,-122 586.7256,-86 715.2744,-86 715.2744,-122"/>
<text text-anchor="middle" x="651" y="-99.8" font-family="Times,serif" font-size="14.00" fill="#000000">AppRoutingModule</text>
</g>
<!-- AppRoutingModule&#45;&gt;AppModule -->
<g id="edge10" class="edge">
<title>AppRoutingModule&#45;&gt;AppModule</title>
<path fill="none" stroke="#000000" d="M651,-122.2222C651,-140.8285 651,-167 651,-167 651,-167 1061.1857,-167 1061.1857,-167"/>
<polygon fill="#000000" stroke="#000000" points="1061.1858,-170.5001 1071.1857,-167 1061.1857,-163.5001 1061.1858,-170.5001"/>
</g>
<!-- MaterialModule -->
<g id="node12" class="node">
<title>MaterialModule</title>
<polygon fill="#8dd3c7" stroke="#000000" points="568.4706,-122 565.4706,-126 544.4706,-126 541.4706,-122 461.5294,-122 461.5294,-86 568.4706,-86 568.4706,-122"/>
<text text-anchor="middle" x="515" y="-99.8" font-family="Times,serif" font-size="14.00" fill="#000000">MaterialModule</text>
</g>
<!-- MaterialModule&#45;&gt;AppModule -->
<g id="edge11" class="edge">
<title>MaterialModule&#45;&gt;AppModule</title>
<path fill="none" stroke="#000000" d="M515,-122.2228C515,-142.3652 515,-172 515,-172 515,-172 1060.9498,-172 1060.9498,-172"/>
<polygon fill="#000000" stroke="#000000" points="1060.9498,-175.5001 1070.9498,-172 1060.9498,-168.5001 1060.9498,-175.5001"/>
</g>
<!-- BingApiLoaderService -->
<g id="node14" class="node">
<title>BingApiLoaderService</title>
<ellipse fill="#fdb462" stroke="#000000" cx="337" cy="-104" rx="100.7017" ry="18"/>
<text text-anchor="middle" x="337" y="-99.8" font-family="Times,serif" font-size="14.00" fill="#000000">BingApiLoaderService</text>
</g>
<!-- BingApiLoaderService&#45;&gt;AppModule -->
<g id="edge13" class="edge">
<title>BingApiLoaderService&#45;&gt;AppModule</title>
<path fill="none" stroke="#000000" d="M337,-122.0449C337,-143.6623 337,-177 337,-177 337,-177 1061.2789,-177 1061.2789,-177"/>
<polygon fill="#000000" stroke="#000000" points="1061.2789,-180.5001 1071.2789,-177 1061.2788,-173.5001 1061.2789,-180.5001"/>
</g>
<!-- SiteConditionsService -->
<g id="node15" class="node">
<title>SiteConditionsService</title>
<ellipse fill="#fdb462" stroke="#000000" cx="121" cy="-104" rx="97.3069" ry="18"/>
<text text-anchor="middle" x="121" y="-99.8" font-family="Times,serif" font-size="14.00" fill="#000000">SiteConditionsService</text>
</g>
<!-- SiteConditionsService&#45;&gt;AppModule -->
<g id="edge14" class="edge">
<title>SiteConditionsService&#45;&gt;AppModule</title>
<path fill="none" stroke="#000000" d="M121,-122.0908C121,-145.1328 121,-182 121,-182 121,-182 1061.3238,-182 1061.3238,-182"/>
<polygon fill="#000000" stroke="#000000" points="1061.3239,-185.5001 1071.3238,-182 1061.3238,-178.5001 1061.3239,-185.5001"/>
</g>
</g>
</svg>
