<?xml version="1.0" encoding="UTF-8" standalone="no"?>
<!DOCTYPE svg PUBLIC "-//W3C//DTD SVG 1.1//EN"
 "http://www.w3.org/Graphics/SVG/1.1/DTD/svg11.dtd">
<!-- Generated by graphviz version 2.40.1 (20161225.0304)
 -->
<!-- Title: dependencies Pages: 1 -->
<svg width="904pt" height="284pt"
 viewBox="0.00 0.00 904.00 284.00" xmlns="http://www.w3.org/2000/svg" xmlns:xlink="http://www.w3.org/1999/xlink">
<g id="graph0" class="graph" transform="scale(1 1) rotate(0) translate(4 280)">
<title>dependencies</title>
<polygon fill="#ffffff" stroke="transparent" points="-4,4 -4,-280 900,-280 900,4 -4,4"/>
<text text-anchor="start" x="427.0091" y="-42.4" font-family="sans-serif" font-weight="bold" font-size="14.00" fill="#000000">Legend</text>
<polygon fill="#ffffb3" stroke="transparent" points="214,-10 214,-30 234,-30 234,-10 214,-10"/>
<text text-anchor="start" x="237.629" y="-15.4" font-family="sans-serif" font-size="14.00" fill="#000000"> &#160;Declarations</text>
<polygon fill="#8dd3c7" stroke="transparent" points="327,-10 327,-30 347,-30 347,-10 327,-10"/>
<text text-anchor="start" x="350.7251" y="-15.4" font-family="sans-serif" font-size="14.00" fill="#000000"> &#160;Module</text>
<polygon fill="#80b1d3" stroke="transparent" points="413,-10 413,-30 433,-30 433,-10 413,-10"/>
<text text-anchor="start" x="436.7812" y="-15.4" font-family="sans-serif" font-size="14.00" fill="#000000"> &#160;Bootstrap</text>
<polygon fill="#fdb462" stroke="transparent" points="510,-10 510,-30 530,-30 530,-10 510,-10"/>
<text text-anchor="start" x="533.6732" y="-15.4" font-family="sans-serif" font-size="14.00" fill="#000000"> &#160;Providers</text>
<polygon fill="#fb8072" stroke="transparent" points="606,-10 606,-30 626,-30 626,-10 606,-10"/>
<text text-anchor="start" x="629.7258" y="-15.4" font-family="sans-serif" font-size="14.00" fill="#000000"> &#160;Exports</text>
<g id="clust1" class="cluster">
<title>cluster_AppModule</title>
<polygon fill="none" stroke="#000000" stroke-dasharray="1,5" points="8,-70 8,-268 888,-268 888,-70 8,-70"/>
</g>
<g id="clust2" class="cluster">
<title>cluster_AppModule_declarations</title>
<polygon fill="none" stroke="#000000" points="606,-78 606,-130 880,-130 880,-78 606,-78"/>
</g>
<g id="clust5" class="cluster">
<title>cluster_AppModule_imports</title>
<polygon fill="none" stroke="#000000" points="454,-78 454,-130 598,-130 598,-78 454,-78"/>
</g>
<g id="clust7" class="cluster">
<title>cluster_AppModule_bootstrap</title>
<polygon fill="none" stroke="#000000" points="464,-208 464,-260 588,-260 588,-208 464,-208"/>
</g>
<g id="clust8" class="cluster">
<title>cluster_AppModule_providers</title>
<polygon fill="none" stroke="#000000" points="16,-78 16,-130 446,-130 446,-78 16,-78"/>
</g>
<!-- AppComponent -->
<g id="node1" class="node">
<title>AppComponent</title>
<polygon fill="#ffffb3" stroke="#000000" points="871.9399,-122 766.0601,-122 766.0601,-86 871.9399,-86 871.9399,-122"/>
<text text-anchor="middle" x="819" y="-99.8" font-family="Times,serif" font-size="14.00" fill="#000000">AppComponent</text>
</g>
<!-- AppModule -->
<g id="node3" class="node">
<title>AppModule</title>
<polygon fill="#8dd3c7" stroke="#000000" points="567.6571,-187 564.6571,-191 543.6571,-191 540.6571,-187 484.3429,-187 484.3429,-151 567.6571,-151 567.6571,-187"/>
<text text-anchor="middle" x="526" y="-164.8" font-family="Times,serif" font-size="14.00" fill="#000000">AppModule</text>
</g>
<!-- AppComponent&#45;&gt;AppModule -->
<g id="edge1" class="edge">
<title>AppComponent&#45;&gt;AppModule</title>
<path fill="none" stroke="#000000" d="M819,-122.2843C819,-143.3211 819,-175 819,-175 819,-175 577.6686,-175 577.6686,-175"/>
<polygon fill="#000000" stroke="#000000" points="577.6686,-171.5001 567.6686,-175 577.6686,-178.5001 577.6686,-171.5001"/>
</g>
<!-- BingMapComponent -->
<g id="node2" class="node">
<title>BingMapComponent</title>
<polygon fill="#ffffb3" stroke="#000000" points="748.219,-122 613.781,-122 613.781,-86 748.219,-86 748.219,-122"/>
<text text-anchor="middle" x="681" y="-99.8" font-family="Times,serif" font-size="14.00" fill="#000000">BingMapComponent</text>
</g>
<!-- BingMapComponent&#45;&gt;AppModule -->
<g id="edge2" class="edge">
<title>BingMapComponent&#45;&gt;AppModule</title>
<path fill="none" stroke="#000000" d="M681,-122.0225C681,-139.3734 681,-163 681,-163 681,-163 577.9452,-163 577.9452,-163"/>
<polygon fill="#000000" stroke="#000000" points="577.9453,-159.5001 567.9452,-163 577.9452,-166.5001 577.9453,-159.5001"/>
</g>
<!-- AppComponent  -->
<g id="node5" class="node">
<title>AppComponent </title>
<polygon fill="#80b1d3" stroke="#000000" points="580.439,-252 471.561,-252 471.561,-216 580.439,-216 580.439,-252"/>
<text text-anchor="middle" x="526" y="-229.8" font-family="Times,serif" font-size="14.00" fill="#000000">AppComponent </text>
</g>
<!-- AppModule&#45;&gt;AppComponent  -->
<g id="edge4" class="edge">
<title>AppModule&#45;&gt;AppComponent </title>
<path fill="none" stroke="#000000" stroke-dasharray="1,5" d="M526,-187.1061C526,-187.1061 526,-205.991 526,-205.991"/>
<polygon fill="#000000" stroke="#000000" points="522.5001,-205.9909 526,-215.991 529.5001,-205.991 522.5001,-205.9909"/>
</g>
<!-- AppRoutingModule -->
<g id="node4" class="node">
<title>AppRoutingModule</title>
<polygon fill="#8dd3c7" stroke="#000000" points="590.2744,-122 587.2744,-126 566.2744,-126 563.2744,-122 461.7256,-122 461.7256,-86 590.2744,-86 590.2744,-122"/>
<text text-anchor="middle" x="526" y="-99.8" font-family="Times,serif" font-size="14.00" fill="#000000">AppRoutingModule</text>
</g>
<!-- AppRoutingModule&#45;&gt;AppModule -->
<g id="edge3" class="edge">
<title>AppRoutingModule&#45;&gt;AppModule</title>
<path fill="none" stroke="#000000" d="M526,-122.1061C526,-122.1061 526,-140.991 526,-140.991"/>
<polygon fill="#000000" stroke="#000000" points="522.5001,-140.9909 526,-150.991 529.5001,-140.991 522.5001,-140.9909"/>
</g>
<!-- BingApiLoaderService -->
<g id="node6" class="node">
<title>BingApiLoaderService</title>
<ellipse fill="#fdb462" stroke="#000000" cx="337" cy="-104" rx="100.7017" ry="18"/>
<text text-anchor="middle" x="337" y="-99.8" font-family="Times,serif" font-size="14.00" fill="#000000">BingApiLoaderService</text>
</g>
<!-- BingApiLoaderService&#45;&gt;AppModule -->
<g id="edge5" class="edge">
<title>BingApiLoaderService&#45;&gt;AppModule</title>
<path fill="none" stroke="#000000" d="M337,-122.0225C337,-139.3734 337,-163 337,-163 337,-163 474.0548,-163 474.0548,-163"/>
<polygon fill="#000000" stroke="#000000" points="474.0548,-166.5001 484.0548,-163 474.0547,-159.5001 474.0548,-166.5001"/>
</g>
<!-- SiteConditionsService -->
<g id="node7" class="node">
<title>SiteConditionsService</title>
<ellipse fill="#fdb462" stroke="#000000" cx="121" cy="-104" rx="97.3069" ry="18"/>
<text text-anchor="middle" x="121" y="-99.8" font-family="Times,serif" font-size="14.00" fill="#000000">SiteConditionsService</text>
</g>
<!-- SiteConditionsService&#45;&gt;AppModule -->
<g id="edge6" class="edge">
<title>SiteConditionsService&#45;&gt;AppModule</title>
<path fill="none" stroke="#000000" d="M121,-122.2843C121,-143.3211 121,-175 121,-175 121,-175 474.1833,-175 474.1833,-175"/>
<polygon fill="#000000" stroke="#000000" points="474.1833,-178.5001 484.1833,-175 474.1833,-171.5001 474.1833,-178.5001"/>
</g>
</g>
</svg>
