<?xml version="1.0" encoding="UTF-8" standalone="no"?>
<!DOCTYPE svg PUBLIC "-//W3C//DTD SVG 1.1//EN"
 "http://www.w3.org/Graphics/SVG/1.1/DTD/svg11.dtd">
<!-- Generated by graphviz version 2.40.1 (20161225.0304)
 -->
<!-- Title: dependencies Pages: 1 -->
<svg width="3223pt" height="431pt"
 viewBox="0.00 0.00 3223.00 431.00" xmlns="http://www.w3.org/2000/svg" xmlns:xlink="http://www.w3.org/1999/xlink">
<g id="graph0" class="graph" transform="scale(1 1) rotate(0) translate(4 427)">
<title>dependencies</title>
<polygon fill="#ffffff" stroke="transparent" points="-4,4 -4,-427 3219,-427 3219,4 -4,4"/>
<text text-anchor="start" x="1586.5091" y="-42.4" font-family="sans-serif" font-weight="bold" font-size="14.00" fill="#000000">Legend</text>
<polygon fill="#ffffb3" stroke="transparent" points="1373.5,-10 1373.5,-30 1393.5,-30 1393.5,-10 1373.5,-10"/>
<text text-anchor="start" x="1397.129" y="-15.4" font-family="sans-serif" font-size="14.00" fill="#000000"> &#160;Declarations</text>
<polygon fill="#8dd3c7" stroke="transparent" points="1486.5,-10 1486.5,-30 1506.5,-30 1506.5,-10 1486.5,-10"/>
<text text-anchor="start" x="1510.2251" y="-15.4" font-family="sans-serif" font-size="14.00" fill="#000000"> &#160;Module</text>
<polygon fill="#80b1d3" stroke="transparent" points="1572.5,-10 1572.5,-30 1592.5,-30 1592.5,-10 1572.5,-10"/>
<text text-anchor="start" x="1596.2812" y="-15.4" font-family="sans-serif" font-size="14.00" fill="#000000"> &#160;Bootstrap</text>
<polygon fill="#fdb462" stroke="transparent" points="1669.5,-10 1669.5,-30 1689.5,-30 1689.5,-10 1669.5,-10"/>
<text text-anchor="start" x="1693.1732" y="-15.4" font-family="sans-serif" font-size="14.00" fill="#000000"> &#160;Providers</text>
<polygon fill="#fb8072" stroke="transparent" points="1765.5,-10 1765.5,-30 1785.5,-30 1785.5,-10 1765.5,-10"/>
<text text-anchor="start" x="1789.2258" y="-15.4" font-family="sans-serif" font-size="14.00" fill="#000000"> &#160;Exports</text>
<g id="clust1" class="cluster">
<title>cluster_AppModule</title>
<polygon fill="none" stroke="#000000" stroke-dasharray="1,5" points="8,-146 8,-415 1691,-415 1691,-146 8,-146"/>
</g>
<g id="clust2" class="cluster">
<title>cluster_AppModule_declarations</title>
<polygon fill="none" stroke="#000000" points="845,-219 845,-271 1147,-271 1147,-219 845,-219"/>
</g>
<g id="clust5" class="cluster">
<title>cluster_AppModule_imports</title>
<polygon fill="none" stroke="#000000" points="1155,-154 1155,-271 1683,-271 1683,-154 1155,-154"/>
</g>
<g id="clust6" class="cluster">
<title>cluster_AppModule_exports</title>
<polygon fill="none" stroke="#000000" points="665,-355 665,-407 791,-407 791,-355 665,-355"/>
</g>
<g id="clust7" class="cluster">
<title>cluster_AppModule_bootstrap</title>
<polygon fill="none" stroke="#000000" points="799,-355 799,-407 923,-407 923,-355 799,-355"/>
</g>
<g id="clust8" class="cluster">
<title>cluster_AppModule_providers</title>
<polygon fill="none" stroke="#000000" points="16,-219 16,-271 763,-271 763,-219 16,-219"/>
</g>
<g id="clust15" class="cluster">
<title>cluster_DashboardModule</title>
<polygon fill="none" stroke="#000000" stroke-dasharray="1,5" points="1265,-70 1265,-138 2825,-138 2825,-70 1265,-70"/>
</g>
<g id="clust16" class="cluster">
<title>cluster_DashboardModule_declarations</title>
<polygon fill="none" stroke="#000000" points="1403,-78 1403,-130 2817,-130 2817,-78 1403,-78"/>
</g>
<g id="clust26" class="cluster">
<title>cluster_DashboardModule_imports</title>
<polygon fill="none" stroke="#000000" points="1273,-78 1273,-130 1395,-130 1395,-78 1273,-78"/>
</g>
<g id="clust36" class="cluster">
<title>cluster_SharedModule</title>
<polygon fill="none" stroke="#000000" stroke-dasharray="1,5" points="1699,-279 1699,-347 3207,-347 3207,-279 1699,-279"/>
</g>
<g id="clust37" class="cluster">
<title>cluster_SharedModule_declarations</title>
<polygon fill="none" stroke="#000000" points="2465,-287 2465,-339 3199,-339 3199,-287 2465,-287"/>
</g>
<g id="clust44" class="cluster">
<title>cluster_SharedModule_exports</title>
<polygon fill="none" stroke="#000000" points="1707,-287 1707,-339 2457,-339 2457,-287 1707,-287"/>
</g>
<g id="clust47" class="cluster">
<title>cluster_StaticPagesModule</title>
<polygon fill="none" stroke="#000000" stroke-dasharray="1,5" points="141,-70 141,-138 787,-138 787,-70 141,-70"/>
</g>
<g id="clust48" class="cluster">
<title>cluster_StaticPagesModule_declarations</title>
<polygon fill="none" stroke="#000000" points="149,-78 149,-130 779,-130 779,-78 149,-78"/>
</g>
<g id="clust57" class="cluster">
<title>cluster_UserModule</title>
<polygon fill="none" stroke="#000000" stroke-dasharray="1,5" points="795,-70 795,-138 1257,-138 1257,-70 795,-70"/>
</g>
<g id="clust58" class="cluster">
<title>cluster_UserModule_declarations</title>
<polygon fill="none" stroke="#000000" points="803,-78 803,-130 1249,-130 1249,-78 803,-78"/>
</g>
<!-- AppComponent -->
<g id="node1" class="node">
<title>AppComponent</title>
<polygon fill="#ffffb3" stroke="#000000" points="1138.9399,-263 1033.0601,-263 1033.0601,-227 1138.9399,-227 1138.9399,-263"/>
<text text-anchor="middle" x="1086" y="-240.8" font-family="Times,serif" font-size="14.00" fill="#000000">AppComponent</text>
</g>
<!-- AppModule -->
<g id="node3" class="node">
<title>AppModule</title>
<polygon fill="#8dd3c7" stroke="#000000" points="835.6571,-331 832.6571,-335 811.6571,-335 808.6571,-331 752.3429,-331 752.3429,-295 835.6571,-295 835.6571,-331"/>
<text text-anchor="middle" x="794" y="-308.8" font-family="Times,serif" font-size="14.00" fill="#000000">AppModule</text>
</g>
<!-- AppComponent&#45;&gt;AppModule -->
<g id="edge1" class="edge">
<title>AppComponent&#45;&gt;AppModule</title>
<path fill="none" stroke="#000000" d="M1086,-263.027C1086,-279.3976 1086,-301 1086,-301 1086,-301 845.8365,-301 845.8365,-301"/>
<polygon fill="#000000" stroke="#000000" points="845.8365,-297.5001 835.8365,-301 845.8364,-304.5001 845.8365,-297.5001"/>
</g>
<!-- UploadImagesComponent -->
<g id="node2" class="node">
<title>UploadImagesComponent</title>
<polygon fill="#ffffb3" stroke="#000000" points="1015.4692,-263 852.5308,-263 852.5308,-227 1015.4692,-227 1015.4692,-263"/>
<text text-anchor="middle" x="934" y="-240.8" font-family="Times,serif" font-size="14.00" fill="#000000">UploadImagesComponent</text>
</g>
<!-- UploadImagesComponent&#45;&gt;AppModule -->
<g id="edge2" class="edge">
<title>UploadImagesComponent&#45;&gt;AppModule</title>
<path fill="none" stroke="#000000" d="M852.4105,-239C837.9613,-239 827.4229,-239 827.4229,-239 827.4229,-239 827.4229,-284.7079 827.4229,-284.7079"/>
<polygon fill="#000000" stroke="#000000" points="823.923,-284.7078 827.4229,-294.7079 830.923,-284.7079 823.923,-284.7078"/>
</g>
<!-- MaterialModule  -->
<g id="node9" class="node">
<title>MaterialModule </title>
<polygon fill="#fb8072" stroke="#000000" points="783.4716,-399 672.5284,-399 672.5284,-363 783.4716,-363 783.4716,-399"/>
<text text-anchor="middle" x="728" y="-376.8" font-family="Times,serif" font-size="14.00" fill="#000000">MaterialModule </text>
</g>
<!-- AppModule&#45;&gt;MaterialModule  -->
<g id="edge8" class="edge">
<title>AppModule&#45;&gt;MaterialModule </title>
<path fill="none" stroke="#000000" stroke-dasharray="5,2" d="M767.7035,-331.2228C767.7035,-331.2228 767.7035,-352.7269 767.7035,-352.7269"/>
<polygon fill="#000000" stroke="#000000" points="764.2036,-352.7269 767.7035,-362.7269 771.2036,-352.727 764.2036,-352.7269"/>
</g>
<!-- AppComponent  -->
<g id="node10" class="node">
<title>AppComponent </title>
<polygon fill="#80b1d3" stroke="#000000" points="915.439,-399 806.561,-399 806.561,-363 915.439,-363 915.439,-399"/>
<text text-anchor="middle" x="861" y="-376.8" font-family="Times,serif" font-size="14.00" fill="#000000">AppComponent </text>
</g>
<!-- AppModule&#45;&gt;AppComponent  -->
<g id="edge9" class="edge">
<title>AppModule&#45;&gt;AppComponent </title>
<path fill="none" stroke="#000000" stroke-dasharray="1,5" d="M821.1794,-331.2228C821.1794,-331.2228 821.1794,-352.7269 821.1794,-352.7269"/>
<polygon fill="#000000" stroke="#000000" points="817.6794,-352.7269 821.1794,-362.7269 824.6794,-352.727 817.6794,-352.7269"/>
</g>
<!-- AppRoutingModule -->
<g id="node4" class="node">
<title>AppRoutingModule</title>
<polygon fill="#8dd3c7" stroke="#000000" points="1675.2744,-198 1672.2744,-202 1651.2744,-202 1648.2744,-198 1546.7256,-198 1546.7256,-162 1675.2744,-162 1675.2744,-198"/>
<text text-anchor="middle" x="1611" y="-175.8" font-family="Times,serif" font-size="14.00" fill="#000000">AppRoutingModule</text>
</g>
<!-- AppRoutingModule&#45;&gt;AppModule -->
<g id="edge3" class="edge">
<title>AppRoutingModule&#45;&gt;AppModule</title>
<path fill="none" stroke="#000000" d="M1561.7009,-198.1718C1561.7009,-235.8494 1561.7009,-319 1561.7009,-319 1561.7009,-319 845.8201,-319 845.8201,-319"/>
<polygon fill="#000000" stroke="#000000" points="845.8202,-315.5001 835.8201,-319 845.8201,-322.5001 845.8202,-315.5001"/>
</g>
<!-- SharedModule -->
<g id="node6" class="node">
<title>SharedModule</title>
<polygon fill="#8dd3c7" stroke="#000000" points="1675.4231,-263 1672.4231,-267 1651.4231,-267 1648.4231,-263 1576.5769,-263 1576.5769,-227 1675.4231,-227 1675.4231,-263"/>
<text text-anchor="middle" x="1626" y="-240.8" font-family="Times,serif" font-size="14.00" fill="#000000">SharedModule</text>
</g>
<!-- AppRoutingModule&#45;&gt;SharedModule -->
<g id="edge29" class="edge">
<title>AppRoutingModule&#45;&gt;SharedModule</title>
<path fill="none" stroke="#000000" d="M1626,-198.1061C1626,-198.1061 1626,-216.991 1626,-216.991"/>
<polygon fill="#000000" stroke="#000000" points="1622.5001,-216.9909 1626,-226.991 1629.5001,-216.991 1622.5001,-216.9909"/>
</g>
<!-- DashboardModule -->
<g id="node5" class="node">
<title>DashboardModule</title>
<polygon fill="#8dd3c7" stroke="#000000" points="1529.191,-198 1526.191,-202 1505.191,-202 1502.191,-198 1408.809,-198 1408.809,-162 1529.191,-162 1529.191,-198"/>
<text text-anchor="middle" x="1469" y="-175.8" font-family="Times,serif" font-size="14.00" fill="#000000">DashboardModule</text>
</g>
<!-- DashboardModule&#45;&gt;AppModule -->
<g id="edge4" class="edge">
<title>DashboardModule&#45;&gt;AppModule</title>
<path fill="none" stroke="#000000" d="M1469,-198.2142C1469,-234.6396 1469,-313 1469,-313 1469,-313 845.7149,-313 845.7149,-313"/>
<polygon fill="#000000" stroke="#000000" points="845.7149,-309.5001 835.7149,-313 845.7148,-316.5001 845.7149,-309.5001"/>
</g>
<!-- SharedModule&#45;&gt;AppModule -->
<g id="edge5" class="edge">
<title>SharedModule&#45;&gt;AppModule</title>
<path fill="none" stroke="#000000" d="M1626,-263.1532C1626,-286.7566 1626,-325 1626,-325 1626,-325 845.8292,-325 845.8292,-325"/>
<polygon fill="#000000" stroke="#000000" points="845.8292,-321.5001 835.8292,-325 845.8292,-328.5001 845.8292,-321.5001"/>
</g>
<!-- ErrorpageComponent  -->
<g id="node30" class="node">
<title>ErrorpageComponent </title>
<polygon fill="#fb8072" stroke="#000000" points="2021.2961,-331 1880.7039,-331 1880.7039,-295 2021.2961,-295 2021.2961,-331"/>
<text text-anchor="middle" x="1951" y="-308.8" font-family="Times,serif" font-size="14.00" fill="#000000">ErrorpageComponent </text>
</g>
<!-- SharedModule&#45;&gt;ErrorpageComponent  -->
<g id="edge31" class="edge">
<title>SharedModule&#45;&gt;ErrorpageComponent </title>
<path fill="none" stroke="#000000" stroke-dasharray="5,2" d="M1675.3645,-257C1764.2205,-257 1941.9325,-257 1941.9325,-257 1941.9325,-257 1941.9325,-284.973 1941.9325,-284.973"/>
<polygon fill="#000000" stroke="#000000" points="1938.4326,-284.973 1941.9325,-294.973 1945.4326,-284.973 1938.4326,-284.973"/>
</g>
<!-- FileUploadComponent  -->
<g id="node31" class="node">
<title>FileUploadComponent </title>
<polygon fill="#fb8072" stroke="#000000" points="1862.8227,-331 1715.1773,-331 1715.1773,-295 1862.8227,-295 1862.8227,-331"/>
<text text-anchor="middle" x="1789" y="-308.8" font-family="Times,serif" font-size="14.00" fill="#000000">FileUploadComponent </text>
</g>
<!-- SharedModule&#45;&gt;FileUploadComponent  -->
<g id="edge32" class="edge">
<title>SharedModule&#45;&gt;FileUploadComponent </title>
<path fill="none" stroke="#000000" stroke-dasharray="5,2" d="M1675.4595,-260C1697.6533,-260 1718.9329,-260 1718.9329,-260 1718.9329,-260 1718.9329,-284.7604 1718.9329,-284.7604"/>
<polygon fill="#000000" stroke="#000000" points="1715.4329,-284.7604 1718.9329,-294.7604 1722.4329,-284.7604 1715.4329,-284.7604"/>
</g>
<!-- FooterComponent  -->
<g id="node32" class="node">
<title>FooterComponent </title>
<polygon fill="#fb8072" stroke="#000000" points="2448.8814,-331 2327.1186,-331 2327.1186,-295 2448.8814,-295 2448.8814,-331"/>
<text text-anchor="middle" x="2388" y="-308.8" font-family="Times,serif" font-size="14.00" fill="#000000">FooterComponent </text>
</g>
<!-- SharedModule&#45;&gt;FooterComponent  -->
<g id="edge33" class="edge">
<title>SharedModule&#45;&gt;FooterComponent </title>
<path fill="none" stroke="#000000" stroke-dasharray="5,2" d="M1675.4225,-247C1838.501,-247 2349.1811,-247 2349.1811,-247 2349.1811,-247 2349.1811,-284.9652 2349.1811,-284.9652"/>
<polygon fill="#000000" stroke="#000000" points="2345.6812,-284.9652 2349.1811,-294.9652 2352.6812,-284.9652 2345.6812,-284.9652"/>
</g>
<!-- HeaderComponent  -->
<g id="node33" class="node">
<title>HeaderComponent </title>
<polygon fill="#fb8072" stroke="#000000" points="2309.7436,-331 2184.2564,-331 2184.2564,-295 2309.7436,-295 2309.7436,-331"/>
<text text-anchor="middle" x="2247" y="-308.8" font-family="Times,serif" font-size="14.00" fill="#000000">HeaderComponent </text>
</g>
<!-- SharedModule&#45;&gt;HeaderComponent  -->
<g id="edge34" class="edge">
<title>SharedModule&#45;&gt;HeaderComponent </title>
<path fill="none" stroke="#000000" stroke-dasharray="5,2" d="M1675.2835,-250C1813.1134,-250 2192.516,-250 2192.516,-250 2192.516,-250 2192.516,-284.7778 2192.516,-284.7778"/>
<polygon fill="#000000" stroke="#000000" points="2189.016,-284.7778 2192.516,-294.7778 2196.016,-284.7778 2189.016,-284.7778"/>
</g>
<!-- SidebarComponent  -->
<g id="node34" class="node">
<title>SidebarComponent </title>
<polygon fill="#fb8072" stroke="#000000" points="2166.596,-331 2039.404,-331 2039.404,-295 2166.596,-295 2166.596,-331"/>
<text text-anchor="middle" x="2103" y="-308.8" font-family="Times,serif" font-size="14.00" fill="#000000">SidebarComponent </text>
</g>
<!-- SharedModule&#45;&gt;SidebarComponent  -->
<g id="edge35" class="edge">
<title>SharedModule&#45;&gt;SidebarComponent </title>
<path fill="none" stroke="#000000" stroke-dasharray="5,2" d="M1675.2508,-254C1797.1235,-254 2103,-254 2103,-254 2103,-254 2103,-284.9775 2103,-284.9775"/>
<polygon fill="#000000" stroke="#000000" points="2099.5001,-284.9774 2103,-294.9775 2106.5001,-284.9775 2099.5001,-284.9774"/>
</g>
<!-- StaticPagesModule -->
<g id="node7" class="node">
<title>StaticPagesModule</title>
<polygon fill="#8dd3c7" stroke="#000000" points="1287.0898,-198 1284.0898,-202 1263.0898,-202 1260.0898,-198 1162.9102,-198 1162.9102,-162 1287.0898,-162 1287.0898,-198"/>
<text text-anchor="middle" x="1225" y="-175.8" font-family="Times,serif" font-size="14.00" fill="#000000">StaticPagesModule</text>
</g>
<!-- StaticPagesModule&#45;&gt;AppModule -->
<g id="edge6" class="edge">
<title>StaticPagesModule&#45;&gt;AppModule</title>
<path fill="none" stroke="#000000" d="M1162.8981,-192C1049.1703,-192 819.0175,-192 819.0175,-192 819.0175,-192 819.0175,-284.8851 819.0175,-284.8851"/>
<polygon fill="#000000" stroke="#000000" points="815.5176,-284.885 819.0175,-294.8851 822.5176,-284.8851 815.5176,-284.885"/>
</g>
<!-- UserModule -->
<g id="node8" class="node">
<title>UserModule</title>
<polygon fill="#8dd3c7" stroke="#000000" points="1390.9762,-198 1387.9762,-202 1366.9762,-202 1363.9762,-198 1305.0238,-198 1305.0238,-162 1390.9762,-162 1390.9762,-198"/>
<text text-anchor="middle" x="1348" y="-175.8" font-family="Times,serif" font-size="14.00" fill="#000000">UserModule</text>
</g>
<!-- UserModule&#45;&gt;AppModule -->
<g id="edge7" class="edge">
<title>UserModule&#45;&gt;AppModule</title>
<path fill="none" stroke="#000000" d="M1348,-198.196C1348,-233.3126 1348,-307 1348,-307 1348,-307 846.0948,-307 846.0948,-307"/>
<polygon fill="#000000" stroke="#000000" points="846.0948,-303.5001 836.0948,-307 846.0947,-310.5001 846.0948,-303.5001"/>
</g>
<!-- BingApiLoaderService -->
<g id="node11" class="node">
<title>BingApiLoaderService</title>
<ellipse fill="#fdb462" stroke="#000000" cx="290" cy="-245" rx="100.7017" ry="18"/>
<text text-anchor="middle" x="290" y="-240.8" font-family="Times,serif" font-size="14.00" fill="#000000">BingApiLoaderService</text>
</g>
<!-- BingApiLoaderService&#45;&gt;AppModule -->
<g id="edge10" class="edge">
<title>BingApiLoaderService&#45;&gt;AppModule</title>
<path fill="none" stroke="#000000" d="M290,-263.2228C290,-283.3652 290,-313 290,-313 290,-313 742.3268,-313 742.3268,-313"/>
<polygon fill="#000000" stroke="#000000" points="742.3268,-316.5001 752.3268,-313 742.3267,-309.5001 742.3268,-316.5001"/>
</g>
<!-- ErrorInterceptor -->
<g id="node12" class="node">
<title>ErrorInterceptor</title>
<ellipse fill="#fdb462" stroke="#000000" cx="98" cy="-245" rx="73.5329" ry="18"/>
<text text-anchor="middle" x="98" y="-240.8" font-family="Times,serif" font-size="14.00" fill="#000000">ErrorInterceptor</text>
</g>
<!-- ErrorInterceptor&#45;&gt;AppModule -->
<g id="edge11" class="edge">
<title>ErrorInterceptor&#45;&gt;AppModule</title>
<path fill="none" stroke="#000000" d="M98,-263.2479C98,-286.0179 98,-322 98,-322 98,-322 742.2883,-322 742.2883,-322"/>
<polygon fill="#000000" stroke="#000000" points="742.2883,-325.5001 752.2883,-322 742.2882,-318.5001 742.2883,-325.5001"/>
</g>
<!-- JwtInterceptor -->
<g id="node13" class="node">
<title>JwtInterceptor</title>
<ellipse fill="#fdb462" stroke="#000000" cx="688" cy="-245" rx="66.6094" ry="18"/>
<text text-anchor="middle" x="688" y="-240.8" font-family="Times,serif" font-size="14.00" fill="#000000">JwtInterceptor</text>
</g>
<!-- JwtInterceptor&#45;&gt;AppModule -->
<g id="edge12" class="edge">
<title>JwtInterceptor&#45;&gt;AppModule</title>
<path fill="none" stroke="#000000" d="M751.184,-251C759.8357,-251 765.8217,-251 765.8217,-251 765.8217,-251 765.8217,-284.7333 765.8217,-284.7333"/>
<polygon fill="#000000" stroke="#000000" points="762.3218,-284.7333 765.8217,-294.7333 769.3218,-284.7333 762.3218,-284.7333"/>
</g>
<!-- SiteConditionsService -->
<g id="node14" class="node">
<title>SiteConditionsService</title>
<ellipse fill="#fdb462" stroke="#000000" cx="506" cy="-245" rx="97.3069" ry="18"/>
<text text-anchor="middle" x="506" y="-240.8" font-family="Times,serif" font-size="14.00" fill="#000000">SiteConditionsService</text>
</g>
<!-- SiteConditionsService&#45;&gt;AppModule -->
<g id="edge13" class="edge">
<title>SiteConditionsService&#45;&gt;AppModule</title>
<path fill="none" stroke="#000000" d="M506,-263.0225C506,-280.3734 506,-304 506,-304 506,-304 742.1223,-304 742.1223,-304"/>
<polygon fill="#000000" stroke="#000000" points="742.1224,-307.5001 752.1223,-304 742.1223,-300.5001 742.1224,-307.5001"/>
</g>
<!-- BingMapComponent -->
<g id="node15" class="node">
<title>BingMapComponent</title>
<polygon fill="#ffffb3" stroke="#000000" points="1705.219,-122 1570.781,-122 1570.781,-86 1705.219,-86 1705.219,-122"/>
<text text-anchor="middle" x="1638" y="-99.8" font-family="Times,serif" font-size="14.00" fill="#000000">BingMapComponent</text>
</g>
<!-- BingMapComponent&#45;&gt;DashboardModule -->
<g id="edge14" class="edge">
<title>BingMapComponent&#45;&gt;DashboardModule</title>
<path fill="none" stroke="#000000" d="M1623.1389,-122.2434C1623.1389,-129.4297 1623.1389,-136 1623.1389,-136 1623.1389,-136 1434.6297,-136 1434.6297,-136 1434.6297,-136 1434.6297,-151.8495 1434.6297,-151.8495"/>
<polygon fill="#000000" stroke="#000000" points="1431.1298,-151.8494 1434.6297,-161.8495 1438.1298,-151.8495 1431.1298,-151.8494"/>
</g>
<!-- DashboardComponent -->
<g id="node16" class="node">
<title>DashboardComponent</title>
<polygon fill="#ffffb3" stroke="#000000" points="1552.9734,-122 1411.0266,-122 1411.0266,-86 1552.9734,-86 1552.9734,-122"/>
<text text-anchor="middle" x="1482" y="-99.8" font-family="Times,serif" font-size="14.00" fill="#000000">DashboardComponent</text>
</g>
<!-- DashboardComponent&#45;&gt;DashboardModule -->
<g id="edge15" class="edge">
<title>DashboardComponent&#45;&gt;DashboardModule</title>
<path fill="none" stroke="#000000" d="M1422.8215,-122.0109C1422.8215,-122.0109 1422.8215,-151.855 1422.8215,-151.855"/>
<polygon fill="#000000" stroke="#000000" points="1419.3216,-151.8549 1422.8215,-161.855 1426.3216,-151.855 1419.3216,-151.8549"/>
</g>
<!-- DataComponent -->
<g id="node17" class="node">
<title>DataComponent</title>
<polygon fill="#ffffb3" stroke="#000000" points="2808.7591,-122 2701.2409,-122 2701.2409,-86 2808.7591,-86 2808.7591,-122"/>
<text text-anchor="middle" x="2755" y="-99.8" font-family="Times,serif" font-size="14.00" fill="#000000">DataComponent</text>
</g>
<!-- DataComponent&#45;&gt;DashboardModule -->
<g id="edge16" class="edge">
<title>DataComponent&#45;&gt;DashboardModule</title>
<path fill="none" stroke="#000000" d="M2736.8843,-122.0091C2736.8843,-138.0494 2736.8843,-159 2736.8843,-159 2736.8843,-159 1517.2872,-159 1517.2872,-159 1517.2872,-159 1517.2872,-159.292 1517.2872,-159.292"/>
<polygon fill="#000000" stroke="#000000" points="1513.7876,-151.9198 1517.2872,-161.92 1520.7876,-151.9201 1513.7876,-151.9198"/>
</g>
<!-- GeneralCardsComponent -->
<g id="node18" class="node">
<title>GeneralCardsComponent</title>
<polygon fill="#ffffb3" stroke="#000000" points="2683.2907,-122 2524.7093,-122 2524.7093,-86 2683.2907,-86 2683.2907,-122"/>
<text text-anchor="middle" x="2604" y="-99.8" font-family="Times,serif" font-size="14.00" fill="#000000">GeneralCardsComponent</text>
</g>
<!-- GeneralCardsComponent&#45;&gt;DashboardModule -->
<g id="edge17" class="edge">
<title>GeneralCardsComponent&#45;&gt;DashboardModule</title>
<path fill="none" stroke="#000000" d="M2571.0081,-122.1871C2571.0081,-137.1824 2571.0081,-156 2571.0081,-156 2571.0081,-156 1505.479,-156 1505.479,-156 1505.479,-156 1505.479,-156.581 1505.479,-156.581"/>
<polygon fill="#000000" stroke="#000000" points="1501.9792,-151.8097 1505.479,-161.8097 1508.9792,-151.8098 1501.9792,-151.8097"/>
</g>
<!-- GroupComponent -->
<g id="node19" class="node">
<title>GroupComponent</title>
<polygon fill="#ffffb3" stroke="#000000" points="2506.5996,-122 2389.4004,-122 2389.4004,-86 2506.5996,-86 2506.5996,-122"/>
<text text-anchor="middle" x="2448" y="-99.8" font-family="Times,serif" font-size="14.00" fill="#000000">GroupComponent</text>
</g>
<!-- GroupComponent&#45;&gt;DashboardModule -->
<g id="edge18" class="edge">
<title>GroupComponent&#45;&gt;DashboardModule</title>
<path fill="none" stroke="#000000" d="M2419.0703,-122.1467C2419.0703,-135.7395 2419.0703,-152 2419.0703,-152 2419.0703,-152 1493.6708,-152 1493.6708,-152 1493.6708,-152 1493.6708,-152.9793 1493.6708,-152.9793"/>
<polygon fill="#000000" stroke="#000000" points="1490.1709,-151.793 1493.6708,-161.793 1497.1709,-151.7931 1490.1709,-151.793"/>
</g>
<!-- MapSettingsComponent -->
<g id="node20" class="node">
<title>MapSettingsComponent</title>
<polygon fill="#ffffb3" stroke="#000000" points="2371.1052,-122 2218.8948,-122 2218.8948,-86 2371.1052,-86 2371.1052,-122"/>
<text text-anchor="middle" x="2295" y="-99.8" font-family="Times,serif" font-size="14.00" fill="#000000">MapSettingsComponent</text>
</g>
<!-- MapSettingsComponent&#45;&gt;DashboardModule -->
<g id="edge19" class="edge">
<title>MapSettingsComponent&#45;&gt;DashboardModule</title>
<path fill="none" stroke="#000000" d="M2264.2846,-122.0439C2264.2846,-134.5633 2264.2846,-149 2264.2846,-149 2264.2846,-149 1481.8626,-149 1481.8626,-149 1481.8626,-149 1481.8626,-151.9672 1481.8626,-151.9672"/>
<polygon fill="#000000" stroke="#000000" points="1478.3627,-151.9671 1481.8626,-161.9672 1485.3627,-151.9672 1478.3627,-151.9671"/>
</g>
<!-- MobiledashboardComponent -->
<g id="node21" class="node">
<title>MobiledashboardComponent</title>
<polygon fill="#ffffb3" stroke="#000000" points="2200.8075,-122 2021.1925,-122 2021.1925,-86 2200.8075,-86 2200.8075,-122"/>
<text text-anchor="middle" x="2111" y="-99.8" font-family="Times,serif" font-size="14.00" fill="#000000">MobiledashboardComponent</text>
</g>
<!-- MobiledashboardComponent&#45;&gt;DashboardModule -->
<g id="edge20" class="edge">
<title>MobiledashboardComponent&#45;&gt;DashboardModule</title>
<path fill="none" stroke="#000000" d="M2030.3002,-122.0555C2030.3002,-133.439 2030.3002,-146 2030.3002,-146 2030.3002,-146 1470.0543,-146 1470.0543,-146 1470.0543,-146 1470.0543,-151.8056 1470.0543,-151.8056"/>
<polygon fill="#000000" stroke="#000000" points="1466.5544,-151.8055 1470.0543,-161.8056 1473.5544,-151.8056 1466.5544,-151.8055"/>
</g>
<!-- OverviewComponent -->
<g id="node22" class="node">
<title>OverviewComponent</title>
<polygon fill="#ffffb3" stroke="#000000" points="2003.0268,-122 1866.9732,-122 1866.9732,-86 2003.0268,-86 2003.0268,-122"/>
<text text-anchor="middle" x="1935" y="-99.8" font-family="Times,serif" font-size="14.00" fill="#000000">OverviewComponent</text>
</g>
<!-- OverviewComponent&#45;&gt;DashboardModule -->
<g id="edge21" class="edge">
<title>OverviewComponent&#45;&gt;DashboardModule</title>
<path fill="none" stroke="#000000" d="M1873.6695,-122.1097C1873.6695,-131.897 1873.6695,-142 1873.6695,-142 1873.6695,-142 1458.2461,-142 1458.2461,-142 1458.2461,-142 1458.2461,-151.8903 1458.2461,-151.8903"/>
<polygon fill="#000000" stroke="#000000" points="1454.7462,-151.8903 1458.2461,-161.8903 1461.7462,-151.8904 1454.7462,-151.8903"/>
</g>
<!-- SettingsComponent -->
<g id="node23" class="node">
<title>SettingsComponent</title>
<polygon fill="#ffffb3" stroke="#000000" points="1849.4468,-122 1722.5532,-122 1722.5532,-86 1849.4468,-86 1849.4468,-122"/>
<text text-anchor="middle" x="1786" y="-99.8" font-family="Times,serif" font-size="14.00" fill="#000000">SettingsComponent</text>
</g>
<!-- SettingsComponent&#45;&gt;DashboardModule -->
<g id="edge22" class="edge">
<title>SettingsComponent&#45;&gt;DashboardModule</title>
<path fill="none" stroke="#000000" d="M1786,-122.32C1786,-130.7883 1786,-139 1786,-139 1786,-139 1446.4379,-139 1446.4379,-139 1446.4379,-139 1446.4379,-151.8975 1446.4379,-151.8975"/>
<polygon fill="#000000" stroke="#000000" points="1442.938,-151.8974 1446.4379,-161.8975 1449.938,-151.8975 1442.938,-151.8974"/>
</g>
<!-- MaterialModule -->
<g id="node24" class="node">
<title>MaterialModule</title>
<polygon fill="#8dd3c7" stroke="#000000" points="1387.4706,-122 1384.4706,-126 1363.4706,-126 1360.4706,-122 1280.5294,-122 1280.5294,-86 1387.4706,-86 1387.4706,-122"/>
<text text-anchor="middle" x="1334" y="-99.8" font-family="Times,serif" font-size="14.00" fill="#000000">MaterialModule</text>
</g>
<!-- MaterialModule&#45;&gt;DashboardModule -->
<g id="edge23" class="edge">
<title>MaterialModule&#45;&gt;DashboardModule</title>
<path fill="none" stroke="#000000" d="M1387.5423,-104C1394.8738,-104 1399.9464,-104 1399.9464,-104 1399.9464,-104 1399.9464,-180 1399.9464,-180 1399.9464,-180 1400.8209,-180 1400.8209,-180"/>
<polygon fill="#000000" stroke="#000000" points="1398.6921,-183.5001 1408.692,-180 1398.692,-176.5001 1398.6921,-183.5001"/>
</g>
<!-- MaterialModule&#45;&gt;SharedModule -->
<g id="edge30" class="edge">
<title>MaterialModule&#45;&gt;SharedModule</title>
<path fill="none" stroke="#000000" d="M1299.0229,-122.1446C1299.0229,-160.2265 1299.0229,-245 1299.0229,-245 1299.0229,-245 1566.6942,-245 1566.6942,-245"/>
<polygon fill="#000000" stroke="#000000" points="1566.6942,-248.5001 1576.6942,-245 1566.6942,-241.5001 1566.6942,-248.5001"/>
</g>
<!-- MaterialModule&#45;&gt;StaticPagesModule -->
<g id="edge40" class="edge">
<title>MaterialModule&#45;&gt;StaticPagesModule</title>
<path fill="none" stroke="#000000" d="M1293.0339,-122.0109C1293.0339,-144.4852 1293.0339,-180 1293.0339,-180 1293.0339,-180 1292.4538,-180 1292.4538,-180"/>
<polygon fill="#000000" stroke="#000000" points="1297.2334,-176.5002 1287.2334,-180 1297.2333,-183.5002 1297.2334,-176.5002"/>
</g>
<!-- MaterialModule&#45;&gt;UserModule -->
<g id="edge44" class="edge">
<title>MaterialModule&#45;&gt;UserModule</title>
<path fill="none" stroke="#000000" d="M1370.9906,-122.0109C1370.9906,-122.0109 1370.9906,-151.855 1370.9906,-151.855"/>
<polygon fill="#000000" stroke="#000000" points="1367.4907,-151.8549 1370.9906,-161.855 1374.4907,-151.855 1367.4907,-151.8549"/>
</g>
<!-- ErrorpageComponent -->
<g id="node25" class="node">
<title>ErrorpageComponent</title>
<polygon fill="#ffffb3" stroke="#000000" points="2772.7963,-331 2635.2037,-331 2635.2037,-295 2772.7963,-295 2772.7963,-331"/>
<text text-anchor="middle" x="2704" y="-308.8" font-family="Times,serif" font-size="14.00" fill="#000000">ErrorpageComponent</text>
</g>
<!-- ErrorpageComponent&#45;&gt;SharedModule -->
<g id="edge24" class="edge">
<title>ErrorpageComponent&#45;&gt;SharedModule</title>
<path fill="none" stroke="#000000" d="M2659.2486,-294.8314C2659.2486,-273.502 2659.2486,-241 2659.2486,-241 2659.2486,-241 1685.4876,-241 1685.4876,-241"/>
<polygon fill="#000000" stroke="#000000" points="1685.4877,-237.5001 1675.4876,-241 1685.4876,-244.5001 1685.4877,-237.5001"/>
</g>
<!-- FileUploadComponent -->
<g id="node26" class="node">
<title>FileUploadComponent</title>
<polygon fill="#ffffb3" stroke="#000000" points="2617.323,-331 2472.677,-331 2472.677,-295 2617.323,-295 2617.323,-331"/>
<text text-anchor="middle" x="2545" y="-308.8" font-family="Times,serif" font-size="14.00" fill="#000000">FileUploadComponent</text>
</g>
<!-- FileUploadComponent&#45;&gt;SharedModule -->
<g id="edge25" class="edge">
<title>FileUploadComponent&#45;&gt;SharedModule</title>
<path fill="none" stroke="#000000" d="M2489.6943,-294.8711C2489.6943,-274.4276 2489.6943,-244 2489.6943,-244 2489.6943,-244 1685.2239,-244 1685.2239,-244"/>
<polygon fill="#000000" stroke="#000000" points="1685.2239,-240.5001 1675.2239,-244 1685.2239,-247.5001 1685.2239,-240.5001"/>
</g>
<!-- FooterComponent -->
<g id="node27" class="node">
<title>FooterComponent</title>
<polygon fill="#ffffb3" stroke="#000000" points="3190.8809,-331 3073.1191,-331 3073.1191,-295 3190.8809,-295 3190.8809,-331"/>
<text text-anchor="middle" x="3132" y="-308.8" font-family="Times,serif" font-size="14.00" fill="#000000">FooterComponent</text>
</g>
<!-- FooterComponent&#45;&gt;SharedModule -->
<g id="edge26" class="edge">
<title>FooterComponent&#45;&gt;SharedModule</title>
<path fill="none" stroke="#000000" d="M3132,-294.8015C3132,-270.6437 3132,-231 3132,-231 3132,-231 1685.2511,-231 1685.2511,-231"/>
<polygon fill="#000000" stroke="#000000" points="1685.2511,-227.5001 1675.2511,-231 1685.2511,-234.5001 1685.2511,-227.5001"/>
</g>
<!-- HeaderComponent -->
<g id="node28" class="node">
<title>HeaderComponent</title>
<polygon fill="#ffffb3" stroke="#000000" points="3054.7437,-331 2933.2563,-331 2933.2563,-295 3054.7437,-295 3054.7437,-331"/>
<text text-anchor="middle" x="2994" y="-308.8" font-family="Times,serif" font-size="14.00" fill="#000000">HeaderComponent</text>
</g>
<!-- HeaderComponent&#45;&gt;SharedModule -->
<g id="edge27" class="edge">
<title>HeaderComponent&#45;&gt;SharedModule</title>
<path fill="none" stroke="#000000" d="M2994,-294.6772C2994,-271.3398 2994,-234 2994,-234 2994,-234 1685.496,-234 1685.496,-234"/>
<polygon fill="#000000" stroke="#000000" points="1685.4961,-230.5001 1675.496,-234 1685.496,-237.5001 1685.4961,-230.5001"/>
</g>
<!-- SidebarComponent -->
<g id="node29" class="node">
<title>SidebarComponent</title>
<polygon fill="#ffffb3" stroke="#000000" points="2915.0954,-331 2790.9046,-331 2790.9046,-295 2915.0954,-295 2915.0954,-331"/>
<text text-anchor="middle" x="2853" y="-308.8" font-family="Times,serif" font-size="14.00" fill="#000000">SidebarComponent</text>
</g>
<!-- SidebarComponent&#45;&gt;SharedModule -->
<g id="edge28" class="edge">
<title>SidebarComponent&#45;&gt;SharedModule</title>
<path fill="none" stroke="#000000" d="M2799.9159,-294.9891C2799.9159,-272.5148 2799.9159,-237 2799.9159,-237 2799.9159,-237 1685.3189,-237 1685.3189,-237"/>
<polygon fill="#000000" stroke="#000000" points="1685.3189,-233.5001 1675.3189,-237 1685.3188,-240.5001 1685.3189,-233.5001"/>
</g>
<!-- AboutUsComponent -->
<g id="node35" class="node">
<title>AboutUsComponent</title>
<polygon fill="#ffffb3" stroke="#000000" points="422.8809,-122 291.1191,-122 291.1191,-86 422.8809,-86 422.8809,-122"/>
<text text-anchor="middle" x="357" y="-99.8" font-family="Times,serif" font-size="14.00" fill="#000000">AboutUsComponent</text>
</g>
<!-- AboutUsComponent&#45;&gt;StaticPagesModule -->
<g id="edge36" class="edge">
<title>AboutUsComponent&#45;&gt;StaticPagesModule</title>
<path fill="none" stroke="#000000" d="M415.7685,-122.0109C415.7685,-144.4852 415.7685,-180 415.7685,-180 415.7685,-180 1152.8447,-180 1152.8447,-180"/>
<polygon fill="#000000" stroke="#000000" points="1152.8447,-183.5001 1162.8447,-180 1152.8446,-176.5001 1152.8447,-183.5001"/>
</g>
<!-- HomeComponent -->
<g id="node36" class="node">
<title>HomeComponent</title>
<polygon fill="#ffffb3" stroke="#000000" points="272.5451,-122 157.4549,-122 157.4549,-86 272.5451,-86 272.5451,-122"/>
<text text-anchor="middle" x="215" y="-99.8" font-family="Times,serif" font-size="14.00" fill="#000000">HomeComponent</text>
</g>
<!-- HomeComponent&#45;&gt;StaticPagesModule -->
<g id="edge37" class="edge">
<title>HomeComponent&#45;&gt;StaticPagesModule</title>
<path fill="none" stroke="#000000" d="M231.0856,-122.1985C231.0856,-146.3563 231.0856,-186 231.0856,-186 231.0856,-186 1152.8262,-186 1152.8262,-186"/>
<polygon fill="#000000" stroke="#000000" points="1152.8262,-189.5001 1162.8262,-186 1152.8262,-182.5001 1152.8262,-189.5001"/>
</g>
<!-- OurmissionComponent -->
<g id="node37" class="node">
<title>OurmissionComponent</title>
<polygon fill="#ffffb3" stroke="#000000" points="771.161,-122 624.839,-122 624.839,-86 771.161,-86 771.161,-122"/>
<text text-anchor="middle" x="698" y="-99.8" font-family="Times,serif" font-size="14.00" fill="#000000">OurmissionComponent</text>
</g>
<!-- OurmissionComponent&#45;&gt;StaticPagesModule -->
<g id="edge38" class="edge">
<title>OurmissionComponent&#45;&gt;StaticPagesModule</title>
<path fill="none" stroke="#000000" d="M760.313,-122.1686C760.313,-141.0898 760.313,-168 760.313,-168 760.313,-168 1152.8124,-168 1152.8124,-168"/>
<polygon fill="#000000" stroke="#000000" points="1152.8125,-171.5001 1162.8124,-168 1152.8124,-164.5001 1152.8125,-171.5001"/>
</g>
<!-- OurtechnologyComponent -->
<g id="node38" class="node">
<title>OurtechnologyComponent</title>
<polygon fill="#ffffb3" stroke="#000000" points="606.8103,-122 441.1897,-122 441.1897,-86 606.8103,-86 606.8103,-122"/>
<text text-anchor="middle" x="524" y="-99.8" font-family="Times,serif" font-size="14.00" fill="#000000">OurtechnologyComponent</text>
</g>
<!-- OurtechnologyComponent&#45;&gt;StaticPagesModule -->
<g id="edge39" class="edge">
<title>OurtechnologyComponent&#45;&gt;StaticPagesModule</title>
<path fill="none" stroke="#000000" d="M522.3742,-122.0267C522.3742,-142.7672 522.3742,-174 522.3742,-174 522.3742,-174 1152.9549,-174 1152.9549,-174"/>
<polygon fill="#000000" stroke="#000000" points="1152.9549,-177.5001 1162.9549,-174 1152.9548,-170.5001 1152.9549,-177.5001"/>
</g>
<!-- EditAccountComponent -->
<g id="node39" class="node">
<title>EditAccountComponent</title>
<polygon fill="#ffffb3" stroke="#000000" points="1095.0926,-122 942.9074,-122 942.9074,-86 1095.0926,-86 1095.0926,-122"/>
<text text-anchor="middle" x="1019" y="-99.8" font-family="Times,serif" font-size="14.00" fill="#000000">EditAccountComponent</text>
</g>
<!-- EditAccountComponent&#45;&gt;UserModule -->
<g id="edge41" class="edge">
<title>EditAccountComponent&#45;&gt;UserModule</title>
<path fill="none" stroke="#000000" d="M1064.1634,-122.1686C1064.1634,-126.0459 1064.1634,-129 1064.1634,-129 1064.1634,-129 1338.0013,-129 1338.0013,-129 1338.0013,-129 1338.0013,-151.8757 1338.0013,-151.8757"/>
<polygon fill="#000000" stroke="#000000" points="1334.5014,-151.8757 1338.0013,-161.8757 1341.5014,-151.8757 1334.5014,-151.8757"/>
</g>
<!-- LoginComponent -->
<g id="node40" class="node">
<title>LoginComponent</title>
<polygon fill="#ffffb3" stroke="#000000" points="925.2758,-122 810.7242,-122 810.7242,-86 925.2758,-86 925.2758,-122"/>
<text text-anchor="middle" x="868" y="-99.8" font-family="Times,serif" font-size="14.00" fill="#000000">LoginComponent</text>
</g>
<!-- LoginComponent&#45;&gt;UserModule -->
<g id="edge42" class="edge">
<title>LoginComponent&#45;&gt;UserModule</title>
<path fill="none" stroke="#000000" d="M888.9516,-122.207C888.9516,-127.5549 888.9516,-132 888.9516,-132 888.9516,-132 1321.5066,-132 1321.5066,-132 1321.5066,-132 1321.5066,-151.8533 1321.5066,-151.8533"/>
<polygon fill="#000000" stroke="#000000" points="1318.0067,-151.8532 1321.5066,-161.8533 1325.0067,-151.8533 1318.0067,-151.8532"/>
</g>
<!-- RegisterComponent -->
<g id="node41" class="node">
<title>RegisterComponent</title>
<polygon fill="#ffffb3" stroke="#000000" points="1240.9846,-122 1113.0154,-122 1113.0154,-86 1240.9846,-86 1240.9846,-122"/>
<text text-anchor="middle" x="1177" y="-99.8" font-family="Times,serif" font-size="14.00" fill="#000000">RegisterComponent</text>
</g>
<!-- RegisterComponent&#45;&gt;UserModule -->
<g id="edge43" class="edge">
<title>RegisterComponent&#45;&gt;UserModule</title>
<path fill="none" stroke="#000000" d="M1201.9737,-122.1679C1201.9737,-124.4478 1201.9737,-126 1201.9737,-126 1201.9737,-126 1354.4959,-126 1354.4959,-126 1354.4959,-126 1354.4959,-151.7181 1354.4959,-151.7181"/>
<polygon fill="#000000" stroke="#000000" points="1350.996,-151.718 1354.4959,-161.7181 1357.996,-151.7181 1350.996,-151.718"/>
</g>
</g>
</svg>
