<?xml version="1.0" encoding="UTF-8" standalone="no"?>
<!DOCTYPE svg PUBLIC "-//W3C//DTD SVG 1.1//EN"
 "http://www.w3.org/Graphics/SVG/1.1/DTD/svg11.dtd">
<!-- Generated by graphviz version 2.40.1 (20161225.0304)
 -->
<!-- Title: dependencies Pages: 1 -->
<svg width="1584pt" height="211pt"
 viewBox="0.00 0.00 1584.00 211.00" xmlns="http://www.w3.org/2000/svg" xmlns:xlink="http://www.w3.org/1999/xlink">
<g id="graph0" class="graph" transform="scale(1 1) rotate(0) translate(4 207)">
<title>dependencies</title>
<polygon fill="#ffffff" stroke="transparent" points="-4,4 -4,-207 1580,-207 1580,4 -4,4"/>
<text text-anchor="start" x="767.0091" y="-42.4" font-family="sans-serif" font-weight="bold" font-size="14.00" fill="#000000">Legend</text>
<polygon fill="#ffffb3" stroke="transparent" points="554,-10 554,-30 574,-30 574,-10 554,-10"/>
<text text-anchor="start" x="577.629" y="-15.4" font-family="sans-serif" font-size="14.00" fill="#000000"> &#160;Declarations</text>
<polygon fill="#8dd3c7" stroke="transparent" points="667,-10 667,-30 687,-30 687,-10 667,-10"/>
<text text-anchor="start" x="690.7251" y="-15.4" font-family="sans-serif" font-size="14.00" fill="#000000"> &#160;Module</text>
<polygon fill="#80b1d3" stroke="transparent" points="753,-10 753,-30 773,-30 773,-10 753,-10"/>
<text text-anchor="start" x="776.7812" y="-15.4" font-family="sans-serif" font-size="14.00" fill="#000000"> &#160;Bootstrap</text>
<polygon fill="#fdb462" stroke="transparent" points="850,-10 850,-30 870,-30 870,-10 850,-10"/>
<text text-anchor="start" x="873.6732" y="-15.4" font-family="sans-serif" font-size="14.00" fill="#000000"> &#160;Providers</text>
<polygon fill="#fb8072" stroke="transparent" points="946,-10 946,-30 966,-30 966,-10 946,-10"/>
<text text-anchor="start" x="969.7258" y="-15.4" font-family="sans-serif" font-size="14.00" fill="#000000"> &#160;Exports</text>
<g id="clust1" class="cluster">
<title>cluster_DashboardModule</title>
<polygon fill="none" stroke="#000000" stroke-dasharray="1,5" points="8,-70 8,-195 1568,-195 1568,-70 8,-70"/>
</g>
<g id="clust2" class="cluster">
<title>cluster_DashboardModule_declarations</title>
<polygon fill="none" stroke="#000000" points="146,-78 146,-130 1560,-130 1560,-78 146,-78"/>
</g>
<g id="clust12" class="cluster">
<title>cluster_DashboardModule_imports</title>
<polygon fill="none" stroke="#000000" points="16,-78 16,-130 138,-130 138,-78 16,-78"/>
</g>
<!-- BingMapComponent -->
<g id="node1" class="node">
<title>BingMapComponent</title>
<polygon fill="#ffffb3" stroke="#000000" points="1552.219,-122 1417.781,-122 1417.781,-86 1552.219,-86 1552.219,-122"/>
<text text-anchor="middle" x="1485" y="-99.8" font-family="Times,serif" font-size="14.00" fill="#000000">BingMapComponent</text>
</g>
<!-- DashboardModule -->
<g id="node10" class="node">
<title>DashboardModule</title>
<polygon fill="#8dd3c7" stroke="#000000" points="862.191,-187 859.191,-191 838.191,-191 835.191,-187 741.809,-187 741.809,-151 862.191,-151 862.191,-187"/>
<text text-anchor="middle" x="802" y="-164.8" font-family="Times,serif" font-size="14.00" fill="#000000">DashboardModule</text>
</g>
<!-- BingMapComponent&#45;&gt;DashboardModule -->
<g id="edge1" class="edge">
<title>BingMapComponent&#45;&gt;DashboardModule</title>
<path fill="none" stroke="#000000" d="M1485,-122.0109C1485,-144.4852 1485,-180 1485,-180 1485,-180 872.3121,-180 872.3121,-180"/>
<polygon fill="#000000" stroke="#000000" points="872.3121,-176.5001 862.3121,-180 872.312,-183.5001 872.3121,-176.5001"/>
</g>
<!-- DashboardComponent -->
<g id="node2" class="node">
<title>DashboardComponent</title>
<polygon fill="#ffffb3" stroke="#000000" points="1399.9734,-122 1258.0266,-122 1258.0266,-86 1399.9734,-86 1399.9734,-122"/>
<text text-anchor="middle" x="1329" y="-99.8" font-family="Times,serif" font-size="14.00" fill="#000000">DashboardComponent</text>
</g>
<!-- DashboardComponent&#45;&gt;DashboardModule -->
<g id="edge2" class="edge">
<title>DashboardComponent&#45;&gt;DashboardModule</title>
<path fill="none" stroke="#000000" d="M1329,-122.1289C1329,-142.5724 1329,-173 1329,-173 1329,-173 872.1968,-173 872.1968,-173"/>
<polygon fill="#000000" stroke="#000000" points="872.1969,-169.5001 862.1968,-173 872.1968,-176.5001 872.1969,-169.5001"/>
</g>
<!-- DataComponent -->
<g id="node3" class="node">
<title>DataComponent</title>
<polygon fill="#ffffb3" stroke="#000000" points="1239.7591,-122 1132.2409,-122 1132.2409,-86 1239.7591,-86 1239.7591,-122"/>
<text text-anchor="middle" x="1186" y="-99.8" font-family="Times,serif" font-size="14.00" fill="#000000">DataComponent</text>
</g>
<!-- DataComponent&#45;&gt;DashboardModule -->
<g id="edge3" class="edge">
<title>DataComponent&#45;&gt;DashboardModule</title>
<path fill="none" stroke="#000000" d="M1186,-122.2667C1186,-140.5552 1186,-166 1186,-166 1186,-166 872.4224,-166 872.4224,-166"/>
<polygon fill="#000000" stroke="#000000" points="872.4225,-162.5001 862.4224,-166 872.4224,-169.5001 872.4225,-162.5001"/>
</g>
<!-- GeneralCardsComponent -->
<g id="node4" class="node">
<title>GeneralCardsComponent</title>
<polygon fill="#ffffb3" stroke="#000000" points="1114.2907,-122 955.7093,-122 955.7093,-86 1114.2907,-86 1114.2907,-122"/>
<text text-anchor="middle" x="1035" y="-99.8" font-family="Times,serif" font-size="14.00" fill="#000000">GeneralCardsComponent</text>
</g>
<!-- GeneralCardsComponent&#45;&gt;DashboardModule -->
<g id="edge4" class="edge">
<title>GeneralCardsComponent&#45;&gt;DashboardModule</title>
<path fill="none" stroke="#000000" d="M1035,-122.0091C1035,-138.0494 1035,-159 1035,-159 1035,-159 872.3063,-159 872.3063,-159"/>
<polygon fill="#000000" stroke="#000000" points="872.3063,-155.5001 862.3063,-159 872.3063,-162.5001 872.3063,-155.5001"/>
</g>
<!-- GroupComponent -->
<g id="node5" class="node">
<title>GroupComponent</title>
<polygon fill="#ffffb3" stroke="#000000" points="937.5996,-122 820.4004,-122 820.4004,-86 937.5996,-86 937.5996,-122"/>
<text text-anchor="middle" x="879" y="-99.8" font-family="Times,serif" font-size="14.00" fill="#000000">GroupComponent</text>
</g>
<!-- GroupComponent&#45;&gt;DashboardModule -->
<g id="edge5" class="edge">
<title>GroupComponent&#45;&gt;DashboardModule</title>
<path fill="none" stroke="#000000" d="M841.2728,-122.1061C841.2728,-122.1061 841.2728,-140.991 841.2728,-140.991"/>
<polygon fill="#000000" stroke="#000000" points="837.7729,-140.9909 841.2728,-150.991 844.7729,-140.991 837.7729,-140.9909"/>
</g>
<!-- MapSettingsComponent -->
<g id="node6" class="node">
<title>MapSettingsComponent</title>
<polygon fill="#ffffb3" stroke="#000000" points="802.1052,-122 649.8948,-122 649.8948,-86 802.1052,-86 802.1052,-122"/>
<text text-anchor="middle" x="726" y="-99.8" font-family="Times,serif" font-size="14.00" fill="#000000">MapSettingsComponent</text>
</g>
<!-- MapSettingsComponent&#45;&gt;DashboardModule -->
<g id="edge6" class="edge">
<title>MapSettingsComponent&#45;&gt;DashboardModule</title>
<path fill="none" stroke="#000000" d="M771.9786,-122.1061C771.9786,-122.1061 771.9786,-140.991 771.9786,-140.991"/>
<polygon fill="#000000" stroke="#000000" points="768.4787,-140.9909 771.9786,-150.991 775.4787,-140.991 768.4787,-140.9909"/>
</g>
<!-- MobiledashboardComponent -->
<g id="node7" class="node">
<title>MobiledashboardComponent</title>
<polygon fill="#ffffb3" stroke="#000000" points="631.8075,-122 452.1925,-122 452.1925,-86 631.8075,-86 631.8075,-122"/>
<text text-anchor="middle" x="542" y="-99.8" font-family="Times,serif" font-size="14.00" fill="#000000">MobiledashboardComponent</text>
</g>
<!-- MobiledashboardComponent&#45;&gt;DashboardModule -->
<g id="edge7" class="edge">
<title>MobiledashboardComponent&#45;&gt;DashboardModule</title>
<path fill="none" stroke="#000000" d="M542,-122.0091C542,-138.0494 542,-159 542,-159 542,-159 731.6973,-159 731.6973,-159"/>
<polygon fill="#000000" stroke="#000000" points="731.6973,-162.5001 741.6973,-159 731.6972,-155.5001 731.6973,-162.5001"/>
</g>
<!-- OverviewComponent -->
<g id="node8" class="node">
<title>OverviewComponent</title>
<polygon fill="#ffffb3" stroke="#000000" points="434.0268,-122 297.9732,-122 297.9732,-86 434.0268,-86 434.0268,-122"/>
<text text-anchor="middle" x="366" y="-99.8" font-family="Times,serif" font-size="14.00" fill="#000000">OverviewComponent</text>
</g>
<!-- OverviewComponent&#45;&gt;DashboardModule -->
<g id="edge8" class="edge">
<title>OverviewComponent&#45;&gt;DashboardModule</title>
<path fill="none" stroke="#000000" d="M366,-122.2667C366,-140.5552 366,-166 366,-166 366,-166 731.8338,-166 731.8338,-166"/>
<polygon fill="#000000" stroke="#000000" points="731.8339,-169.5001 741.8338,-166 731.8338,-162.5001 731.8339,-169.5001"/>
</g>
<!-- SettingsComponent -->
<g id="node9" class="node">
<title>SettingsComponent</title>
<polygon fill="#ffffb3" stroke="#000000" points="280.4468,-122 153.5532,-122 153.5532,-86 280.4468,-86 280.4468,-122"/>
<text text-anchor="middle" x="217" y="-99.8" font-family="Times,serif" font-size="14.00" fill="#000000">SettingsComponent</text>
</g>
<!-- SettingsComponent&#45;&gt;DashboardModule -->
<g id="edge9" class="edge">
<title>SettingsComponent&#45;&gt;DashboardModule</title>
<path fill="none" stroke="#000000" d="M217,-122.1289C217,-142.5724 217,-173 217,-173 217,-173 731.8713,-173 731.8713,-173"/>
<polygon fill="#000000" stroke="#000000" points="731.8713,-176.5001 741.8713,-173 731.8712,-169.5001 731.8713,-176.5001"/>
</g>
<!-- MaterialModule -->
<g id="node11" class="node">
<title>MaterialModule</title>
<polygon fill="#8dd3c7" stroke="#000000" points="130.4706,-122 127.4706,-126 106.4706,-126 103.4706,-122 23.5294,-122 23.5294,-86 130.4706,-86 130.4706,-122"/>
<text text-anchor="middle" x="77" y="-99.8" font-family="Times,serif" font-size="14.00" fill="#000000">MaterialModule</text>
</g>
<!-- MaterialModule&#45;&gt;DashboardModule -->
<g id="edge10" class="edge">
<title>MaterialModule&#45;&gt;DashboardModule</title>
<path fill="none" stroke="#000000" d="M77,-122.0109C77,-144.4852 77,-180 77,-180 77,-180 731.744,-180 731.744,-180"/>
<polygon fill="#000000" stroke="#000000" points="731.744,-183.5001 741.744,-180 731.744,-176.5001 731.744,-183.5001"/>
</g>
</g>
</svg>
