<?xml version="1.0" encoding="UTF-8" standalone="no"?>
<!DOCTYPE svg PUBLIC "-//W3C//DTD SVG 1.1//EN"
 "http://www.w3.org/Graphics/SVG/1.1/DTD/svg11.dtd">
<!-- Generated by graphviz version 2.40.1 (20161225.0304)
 -->
<!-- Title: dependencies Pages: 1 -->
<svg width="1835pt" height="284pt"
 viewBox="0.00 0.00 1835.00 284.00" xmlns="http://www.w3.org/2000/svg" xmlns:xlink="http://www.w3.org/1999/xlink">
<g id="graph0" class="graph" transform="scale(1 1) rotate(0) translate(4 280)">
<title>dependencies</title>
<polygon fill="#ffffff" stroke="transparent" points="-4,4 -4,-280 1831,-280 1831,4 -4,4"/>
<text text-anchor="start" x="892.5091" y="-42.4" font-family="sans-serif" font-weight="bold" font-size="14.00" fill="#000000">Legend</text>
<polygon fill="#ffffb3" stroke="transparent" points="679.5,-10 679.5,-30 699.5,-30 699.5,-10 679.5,-10"/>
<text text-anchor="start" x="703.129" y="-15.4" font-family="sans-serif" font-size="14.00" fill="#000000"> &#160;Declarations</text>
<polygon fill="#8dd3c7" stroke="transparent" points="792.5,-10 792.5,-30 812.5,-30 812.5,-10 792.5,-10"/>
<text text-anchor="start" x="816.2251" y="-15.4" font-family="sans-serif" font-size="14.00" fill="#000000"> &#160;Module</text>
<polygon fill="#80b1d3" stroke="transparent" points="878.5,-10 878.5,-30 898.5,-30 898.5,-10 878.5,-10"/>
<text text-anchor="start" x="902.2812" y="-15.4" font-family="sans-serif" font-size="14.00" fill="#000000"> &#160;Bootstrap</text>
<polygon fill="#fdb462" stroke="transparent" points="975.5,-10 975.5,-30 995.5,-30 995.5,-10 975.5,-10"/>
<text text-anchor="start" x="999.1732" y="-15.4" font-family="sans-serif" font-size="14.00" fill="#000000"> &#160;Providers</text>
<polygon fill="#fb8072" stroke="transparent" points="1071.5,-10 1071.5,-30 1091.5,-30 1091.5,-10 1071.5,-10"/>
<text text-anchor="start" x="1095.2258" y="-15.4" font-family="sans-serif" font-size="14.00" fill="#000000"> &#160;Exports</text>
<g id="clust1" class="cluster">
<title>cluster_AppModule</title>
<polygon fill="none" stroke="#000000" stroke-dasharray="1,5" points="8,-70 8,-268 1819,-268 1819,-70 8,-70"/>
</g>
<g id="clust2" class="cluster">
<title>cluster_AppModule_declarations</title>
<polygon fill="none" stroke="#000000" points="731,-78 731,-130 1811,-130 1811,-78 731,-78"/>
</g>
<g id="clust10" class="cluster">
<title>cluster_AppModule_imports</title>
<polygon fill="none" stroke="#000000" points="454,-78 454,-130 723,-130 723,-78 454,-78"/>
</g>
<g id="clust12" class="cluster">
<title>cluster_AppModule_bootstrap</title>
<polygon fill="none" stroke="#000000" points="907,-208 907,-260 1031,-260 1031,-208 907,-208"/>
</g>
<g id="clust13" class="cluster">
<title>cluster_AppModule_providers</title>
<polygon fill="none" stroke="#000000" points="16,-78 16,-130 446,-130 446,-78 16,-78"/>
</g>
<!-- AppComponent -->
<g id="node1" class="node">
<title>AppComponent</title>
<polygon fill="#ffffb3" stroke="#000000" points="1802.9399,-122 1697.0601,-122 1697.0601,-86 1802.9399,-86 1802.9399,-122"/>
<text text-anchor="middle" x="1750" y="-99.8" font-family="Times,serif" font-size="14.00" fill="#000000">AppComponent</text>
</g>
<!-- AppModule -->
<g id="node8" class="node">
<title>AppModule</title>
<polygon fill="#8dd3c7" stroke="#000000" points="1010.6571,-187 1007.6571,-191 986.6571,-191 983.6571,-187 927.3429,-187 927.3429,-151 1010.6571,-151 1010.6571,-187"/>
<text text-anchor="middle" x="969" y="-164.8" font-family="Times,serif" font-size="14.00" fill="#000000">AppModule</text>
</g>
<!-- AppComponent&#45;&gt;AppModule -->
<g id="edge1" class="edge">
<title>AppComponent&#45;&gt;AppModule</title>
<path fill="none" stroke="#000000" d="M1750,-122.2479C1750,-145.0179 1750,-181 1750,-181 1750,-181 1020.7138,-181 1020.7138,-181"/>
<polygon fill="#000000" stroke="#000000" points="1020.7139,-177.5001 1010.7138,-181 1020.7138,-184.5001 1020.7139,-177.5001"/>
</g>
<!-- BingMapComponent -->
<g id="node2" class="node">
<title>BingMapComponent</title>
<polygon fill="#ffffb3" stroke="#000000" points="1679.219,-122 1544.781,-122 1544.781,-86 1679.219,-86 1679.219,-122"/>
<text text-anchor="middle" x="1612" y="-99.8" font-family="Times,serif" font-size="14.00" fill="#000000">BingMapComponent</text>
</g>
<!-- BingMapComponent&#45;&gt;AppModule -->
<g id="edge2" class="edge">
<title>BingMapComponent&#45;&gt;AppModule</title>
<path fill="none" stroke="#000000" d="M1612,-122.2843C1612,-143.3211 1612,-175 1612,-175 1612,-175 1020.6936,-175 1020.6936,-175"/>
<polygon fill="#000000" stroke="#000000" points="1020.6936,-171.5001 1010.6936,-175 1020.6936,-178.5001 1020.6936,-171.5001"/>
</g>
<!-- GeneralCardsComponent -->
<g id="node3" class="node">
<title>GeneralCardsComponent</title>
<polygon fill="#ffffb3" stroke="#000000" points="1527.2907,-122 1368.7093,-122 1368.7093,-86 1527.2907,-86 1527.2907,-122"/>
<text text-anchor="middle" x="1448" y="-99.8" font-family="Times,serif" font-size="14.00" fill="#000000">GeneralCardsComponent</text>
</g>
<!-- GeneralCardsComponent&#45;&gt;AppModule -->
<g id="edge3" class="edge">
<title>GeneralCardsComponent&#45;&gt;AppModule</title>
<path fill="none" stroke="#000000" d="M1448,-122.1061C1448,-141.3391 1448,-169 1448,-169 1448,-169 1020.6702,-169 1020.6702,-169"/>
<polygon fill="#000000" stroke="#000000" points="1020.6702,-165.5001 1010.6702,-169 1020.6701,-172.5001 1020.6702,-165.5001"/>
</g>
<!-- GroupComponent -->
<g id="node4" class="node">
<title>GroupComponent</title>
<polygon fill="#ffffb3" stroke="#000000" points="1350.5996,-122 1233.4004,-122 1233.4004,-86 1350.5996,-86 1350.5996,-122"/>
<text text-anchor="middle" x="1292" y="-99.8" font-family="Times,serif" font-size="14.00" fill="#000000">GroupComponent</text>
</g>
<!-- GroupComponent&#45;&gt;AppModule -->
<g id="edge4" class="edge">
<title>GroupComponent&#45;&gt;AppModule</title>
<path fill="none" stroke="#000000" d="M1292,-122.0225C1292,-139.3734 1292,-163 1292,-163 1292,-163 1020.8955,-163 1020.8955,-163"/>
<polygon fill="#000000" stroke="#000000" points="1020.8955,-159.5001 1010.8955,-163 1020.8954,-166.5001 1020.8955,-159.5001"/>
</g>
<!-- MapOverlayComponent -->
<g id="node5" class="node">
<title>MapOverlayComponent</title>
<polygon fill="#ffffb3" stroke="#000000" points="1215.0786,-122 1062.9214,-122 1062.9214,-86 1215.0786,-86 1215.0786,-122"/>
<text text-anchor="middle" x="1139" y="-99.8" font-family="Times,serif" font-size="14.00" fill="#000000">MapOverlayComponent</text>
</g>
<!-- MapOverlayComponent&#45;&gt;AppModule -->
<g id="edge5" class="edge">
<title>MapOverlayComponent&#45;&gt;AppModule</title>
<path fill="none" stroke="#000000" d="M1139,-122.2396C1139,-137.5706 1139,-157 1139,-157 1139,-157 1021.0225,-157 1021.0225,-157"/>
<polygon fill="#000000" stroke="#000000" points="1021.0225,-153.5001 1011.0225,-157 1021.0224,-160.5001 1021.0225,-153.5001"/>
</g>
<!-- MapSettingsComponent -->
<g id="node6" class="node">
<title>MapSettingsComponent</title>
<polygon fill="#ffffb3" stroke="#000000" points="1045.1052,-122 892.8948,-122 892.8948,-86 1045.1052,-86 1045.1052,-122"/>
<text text-anchor="middle" x="969" y="-99.8" font-family="Times,serif" font-size="14.00" fill="#000000">MapSettingsComponent</text>
</g>
<!-- MapSettingsComponent&#45;&gt;AppModule -->
<g id="edge6" class="edge">
<title>MapSettingsComponent&#45;&gt;AppModule</title>
<path fill="none" stroke="#000000" d="M969,-122.1061C969,-122.1061 969,-140.991 969,-140.991"/>
<polygon fill="#000000" stroke="#000000" points="965.5001,-140.9909 969,-150.991 972.5001,-140.991 965.5001,-140.9909"/>
</g>
<!-- OverviewComponent -->
<g id="node7" class="node">
<title>OverviewComponent</title>
<polygon fill="#ffffb3" stroke="#000000" points="875.0268,-122 738.9732,-122 738.9732,-86 875.0268,-86 875.0268,-122"/>
<text text-anchor="middle" x="807" y="-99.8" font-family="Times,serif" font-size="14.00" fill="#000000">OverviewComponent</text>
</g>
<!-- OverviewComponent&#45;&gt;AppModule -->
<g id="edge7" class="edge">
<title>OverviewComponent&#45;&gt;AppModule</title>
<path fill="none" stroke="#000000" d="M807,-122.2396C807,-137.5706 807,-157 807,-157 807,-157 917.281,-157 917.281,-157"/>
<polygon fill="#000000" stroke="#000000" points="917.281,-160.5001 927.281,-157 917.2809,-153.5001 917.281,-160.5001"/>
</g>
<!-- AppComponent  -->
<g id="node11" class="node">
<title>AppComponent </title>
<polygon fill="#80b1d3" stroke="#000000" points="1023.439,-252 914.561,-252 914.561,-216 1023.439,-216 1023.439,-252"/>
<text text-anchor="middle" x="969" y="-229.8" font-family="Times,serif" font-size="14.00" fill="#000000">AppComponent </text>
</g>
<!-- AppModule&#45;&gt;AppComponent  -->
<g id="edge10" class="edge">
<title>AppModule&#45;&gt;AppComponent </title>
<path fill="none" stroke="#000000" stroke-dasharray="1,5" d="M969,-187.1061C969,-187.1061 969,-205.991 969,-205.991"/>
<polygon fill="#000000" stroke="#000000" points="965.5001,-205.9909 969,-215.991 972.5001,-205.991 965.5001,-205.9909"/>
</g>
<!-- AppRoutingModule -->
<g id="node9" class="node">
<title>AppRoutingModule</title>
<polygon fill="#8dd3c7" stroke="#000000" points="715.2744,-122 712.2744,-126 691.2744,-126 688.2744,-122 586.7256,-122 586.7256,-86 715.2744,-86 715.2744,-122"/>
<text text-anchor="middle" x="651" y="-99.8" font-family="Times,serif" font-size="14.00" fill="#000000">AppRoutingModule</text>
</g>
<!-- AppRoutingModule&#45;&gt;AppModule -->
<g id="edge8" class="edge">
<title>AppRoutingModule&#45;&gt;AppModule</title>
<path fill="none" stroke="#000000" d="M651,-122.0225C651,-139.3734 651,-163 651,-163 651,-163 917.1001,-163 917.1001,-163"/>
<polygon fill="#000000" stroke="#000000" points="917.1001,-166.5001 927.1001,-163 917.1,-159.5001 917.1001,-166.5001"/>
</g>
<!-- MaterialModule -->
<g id="node10" class="node">
<title>MaterialModule</title>
<polygon fill="#8dd3c7" stroke="#000000" points="568.4706,-122 565.4706,-126 544.4706,-126 541.4706,-122 461.5294,-122 461.5294,-86 568.4706,-86 568.4706,-122"/>
<text text-anchor="middle" x="515" y="-99.8" font-family="Times,serif" font-size="14.00" fill="#000000">MaterialModule</text>
</g>
<!-- MaterialModule&#45;&gt;AppModule -->
<g id="edge9" class="edge">
<title>MaterialModule&#45;&gt;AppModule</title>
<path fill="none" stroke="#000000" d="M515,-122.1061C515,-141.3391 515,-169 515,-169 515,-169 917.1025,-169 917.1025,-169"/>
<polygon fill="#000000" stroke="#000000" points="917.1026,-172.5001 927.1025,-169 917.1025,-165.5001 917.1026,-172.5001"/>
</g>
<!-- BingApiLoaderService -->
<g id="node12" class="node">
<title>BingApiLoaderService</title>
<ellipse fill="#fdb462" stroke="#000000" cx="337" cy="-104" rx="100.7017" ry="18"/>
<text text-anchor="middle" x="337" y="-99.8" font-family="Times,serif" font-size="14.00" fill="#000000">BingApiLoaderService</text>
</g>
<!-- BingApiLoaderService&#45;&gt;AppModule -->
<g id="edge11" class="edge">
<title>BingApiLoaderService&#45;&gt;AppModule</title>
<path fill="none" stroke="#000000" d="M337,-122.2843C337,-143.3211 337,-175 337,-175 337,-175 917.0433,-175 917.0433,-175"/>
<polygon fill="#000000" stroke="#000000" points="917.0433,-178.5001 927.0433,-175 917.0432,-171.5001 917.0433,-178.5001"/>
</g>
<!-- SiteConditionsService -->
<g id="node13" class="node">
<title>SiteConditionsService</title>
<ellipse fill="#fdb462" stroke="#000000" cx="121" cy="-104" rx="97.3069" ry="18"/>
<text text-anchor="middle" x="121" y="-99.8" font-family="Times,serif" font-size="14.00" fill="#000000">SiteConditionsService</text>
</g>
<!-- SiteConditionsService&#45;&gt;AppModule -->
<g id="edge12" class="edge">
<title>SiteConditionsService&#45;&gt;AppModule</title>
<path fill="none" stroke="#000000" d="M121,-122.2479C121,-145.0179 121,-181 121,-181 121,-181 917.2368,-181 917.2368,-181"/>
<polygon fill="#000000" stroke="#000000" points="917.2368,-184.5001 927.2368,-181 917.2368,-177.5001 917.2368,-184.5001"/>
</g>
</g>
</svg>
