<?xml version="1.0" encoding="UTF-8" standalone="no"?>
<!DOCTYPE svg PUBLIC "-//W3C//DTD SVG 1.1//EN"
 "http://www.w3.org/Graphics/SVG/1.1/DTD/svg11.dtd">
<!-- Generated by graphviz version 2.40.1 (20161225.0304)
 -->
<!-- Title: dependencies Pages: 1 -->
<svg width="4602pt" height="284pt"
 viewBox="0.00 0.00 4602.00 284.00" xmlns="http://www.w3.org/2000/svg" xmlns:xlink="http://www.w3.org/1999/xlink">
<g id="graph0" class="graph" transform="scale(1 1) rotate(0) translate(4 280)">
<title>dependencies</title>
<polygon fill="#ffffff" stroke="transparent" points="-4,4 -4,-280 4598,-280 4598,4 -4,4"/>
<text text-anchor="start" x="2276.0091" y="-42.4" font-family="sans-serif" font-weight="bold" font-size="14.00" fill="#000000">Legend</text>
<polygon fill="#ffffb3" stroke="transparent" points="2063,-10 2063,-30 2083,-30 2083,-10 2063,-10"/>
<text text-anchor="start" x="2086.629" y="-15.4" font-family="sans-serif" font-size="14.00" fill="#000000"> &#160;Declarations</text>
<polygon fill="#8dd3c7" stroke="transparent" points="2176,-10 2176,-30 2196,-30 2196,-10 2176,-10"/>
<text text-anchor="start" x="2199.7251" y="-15.4" font-family="sans-serif" font-size="14.00" fill="#000000"> &#160;Module</text>
<polygon fill="#80b1d3" stroke="transparent" points="2262,-10 2262,-30 2282,-30 2282,-10 2262,-10"/>
<text text-anchor="start" x="2285.7812" y="-15.4" font-family="sans-serif" font-size="14.00" fill="#000000"> &#160;Bootstrap</text>
<polygon fill="#fdb462" stroke="transparent" points="2359,-10 2359,-30 2379,-30 2379,-10 2359,-10"/>
<text text-anchor="start" x="2382.6732" y="-15.4" font-family="sans-serif" font-size="14.00" fill="#000000"> &#160;Providers</text>
<polygon fill="#fb8072" stroke="transparent" points="2455,-10 2455,-30 2475,-30 2475,-10 2455,-10"/>
<text text-anchor="start" x="2478.7258" y="-15.4" font-family="sans-serif" font-size="14.00" fill="#000000"> &#160;Exports</text>
<g id="clust1" class="cluster">
<title>cluster_AppModule</title>
<polygon fill="none" stroke="#000000" stroke-dasharray="1,5" points="8,-70 8,-268 4586,-268 4586,-70 8,-70"/>
</g>
<g id="clust2" class="cluster">
<title>cluster_AppModule_declarations</title>
<polygon fill="none" stroke="#000000" points="1048,-78 1048,-130 4578,-130 4578,-78 1048,-78"/>
</g>
<g id="clust26" class="cluster">
<title>cluster_AppModule_imports</title>
<polygon fill="none" stroke="#000000" points="771,-78 771,-130 1040,-130 1040,-78 771,-78"/>
</g>
<g id="clust28" class="cluster">
<title>cluster_AppModule_bootstrap</title>
<polygon fill="none" stroke="#000000" points="2383,-208 2383,-260 2507,-260 2507,-208 2383,-208"/>
</g>
<g id="clust29" class="cluster">
<title>cluster_AppModule_providers</title>
<polygon fill="none" stroke="#000000" points="16,-78 16,-130 763,-130 763,-78 16,-78"/>
</g>
<!-- AboutUsComponent -->
<g id="node1" class="node">
<title>AboutusComponent</title>
<polygon fill="#ffffb3" stroke="#000000" points="4570.2744,-122 4441.7256,-122 4441.7256,-86 4570.2744,-86 4570.2744,-122"/>
<text text-anchor="middle" x="4506" y="-99.8" font-family="Times,serif" font-size="14.00" fill="#000000">AboutusComponent</text>
</g>
<!-- AppModule -->
<g id="node24" class="node">
<title>AppModule</title>
<polygon fill="#8dd3c7" stroke="#000000" points="2486.6571,-187 2483.6571,-191 2462.6571,-191 2459.6571,-187 2403.3429,-187 2403.3429,-151 2486.6571,-151 2486.6571,-187"/>
<text text-anchor="middle" x="2445" y="-164.8" font-family="Times,serif" font-size="14.00" fill="#000000">AppModule</text>
</g>
<!-- AboutUsComponent&#45;&gt;AppModule -->
<g id="edge1" class="edge">
<title>AboutusComponent&#45;&gt;AppModule</title>
<path fill="none" stroke="#000000" d="M4506,-122.3802C4506,-146.2785 4506,-185 4506,-185 4506,-185 2497.1032,-185 2497.1032,-185"/>
<polygon fill="#000000" stroke="#000000" points="2497.1032,-181.5001 2487.1032,-185 2497.1032,-188.5001 2497.1032,-181.5001"/>
</g>
<!-- AppComponent -->
<g id="node2" class="node">
<title>AppComponent</title>
<polygon fill="#ffffb3" stroke="#000000" points="4423.9399,-122 4318.0601,-122 4318.0601,-86 4423.9399,-86 4423.9399,-122"/>
<text text-anchor="middle" x="4371" y="-99.8" font-family="Times,serif" font-size="14.00" fill="#000000">AppComponent</text>
</g>
<!-- AppComponent&#45;&gt;AppModule -->
<g id="edge2" class="edge">
<title>AppComponent&#45;&gt;AppModule</title>
<path fill="none" stroke="#000000" d="M4371,-122.3228C4371,-145.6602 4371,-183 4371,-183 4371,-183 2497.0184,-183 2497.0184,-183"/>
<polygon fill="#000000" stroke="#000000" points="2497.0185,-179.5001 2487.0184,-183 2497.0184,-186.5001 2497.0185,-179.5001"/>
</g>
<!-- BingMapComponent -->
<g id="node3" class="node">
<title>BingMapComponent</title>
<polygon fill="#ffffb3" stroke="#000000" points="4300.219,-122 4165.781,-122 4165.781,-86 4300.219,-86 4300.219,-122"/>
<text text-anchor="middle" x="4233" y="-99.8" font-family="Times,serif" font-size="14.00" fill="#000000">BingMapComponent</text>
</g>
<!-- BingMapComponent&#45;&gt;AppModule -->
<g id="edge3" class="edge">
<title>BingMapComponent&#45;&gt;AppModule</title>
<path fill="none" stroke="#000000" d="M4233,-122.0109C4233,-144.4852 4233,-180 4233,-180 4233,-180 2496.9988,-180 2496.9988,-180"/>
<polygon fill="#000000" stroke="#000000" points="2496.9988,-176.5001 2486.9988,-180 2496.9987,-183.5001 2496.9988,-176.5001"/>
</g>
<!-- DashboardComponent -->
<g id="node4" class="node">
<title>DashboardComponent</title>
<polygon fill="#ffffb3" stroke="#000000" points="4147.9734,-122 4006.0266,-122 4006.0266,-86 4147.9734,-86 4147.9734,-122"/>
<text text-anchor="middle" x="4077" y="-99.8" font-family="Times,serif" font-size="14.00" fill="#000000">DashboardComponent</text>
</g>
<!-- DashboardComponent&#45;&gt;AppModule -->
<g id="edge4" class="edge">
<title>DashboardComponent&#45;&gt;AppModule</title>
<path fill="none" stroke="#000000" d="M4077,-122.2921C4077,-144.2057 4077,-178 4077,-178 4077,-178 2496.9818,-178 2496.9818,-178"/>
<polygon fill="#000000" stroke="#000000" points="2496.9819,-174.5001 2486.9818,-178 2496.9818,-181.5001 2496.9819,-174.5001"/>
</g>
<!-- DataComponent -->
<g id="node5" class="node">
<title>DataComponent</title>
<polygon fill="#ffffb3" stroke="#000000" points="3987.7591,-122 3880.2409,-122 3880.2409,-86 3987.7591,-86 3987.7591,-122"/>
<text text-anchor="middle" x="3934" y="-99.8" font-family="Times,serif" font-size="14.00" fill="#000000">DataComponent</text>
</g>
<!-- DataComponent&#45;&gt;AppModule -->
<g id="edge5" class="edge">
<title>DataComponent&#45;&gt;AppModule</title>
<path fill="none" stroke="#000000" d="M3934,-122.2843C3934,-143.3211 3934,-175 3934,-175 3934,-175 2496.7706,-175 2496.7706,-175"/>
<polygon fill="#000000" stroke="#000000" points="2496.7706,-171.5001 2486.7706,-175 2496.7705,-178.5001 2496.7706,-171.5001"/>
</g>
<!-- EditAccountComponent -->
<g id="node6" class="node">
<title>EditAccountComponent</title>
<polygon fill="#ffffb3" stroke="#000000" points="3862.0926,-122 3709.9074,-122 3709.9074,-86 3862.0926,-86 3862.0926,-122"/>
<text text-anchor="middle" x="3786" y="-99.8" font-family="Times,serif" font-size="14.00" fill="#000000">EditAccountComponent</text>
</g>
<!-- EditAccountComponent&#45;&gt;AppModule -->
<g id="edge6" class="edge">
<title>EditAccountComponent&#45;&gt;AppModule</title>
<path fill="none" stroke="#000000" d="M3786,-122.1289C3786,-142.5724 3786,-173 3786,-173 3786,-173 2496.9754,-173 2496.9754,-173"/>
<polygon fill="#000000" stroke="#000000" points="2496.9754,-169.5001 2486.9754,-173 2496.9753,-176.5001 2496.9754,-169.5001"/>
</g>
<!-- ErrorpageComponent -->
<g id="node7" class="node">
<title>ErrorpageComponent</title>
<polygon fill="#ffffb3" stroke="#000000" points="3691.7963,-122 3554.2037,-122 3554.2037,-86 3691.7963,-86 3691.7963,-122"/>
<text text-anchor="middle" x="3623" y="-99.8" font-family="Times,serif" font-size="14.00" fill="#000000">ErrorpageComponent</text>
</g>
<!-- ErrorpageComponent&#45;&gt;AppModule -->
<g id="edge7" class="edge">
<title>ErrorpageComponent&#45;&gt;AppModule</title>
<path fill="none" stroke="#000000" d="M3623,-122.308C3623,-142.1455 3623,-171 3623,-171 3623,-171 2496.9256,-171 2496.9256,-171"/>
<polygon fill="#000000" stroke="#000000" points="2496.9257,-167.5001 2486.9256,-171 2496.9256,-174.5001 2496.9257,-167.5001"/>
</g>
<!-- FileUploadComponent -->
<g id="node8" class="node">
<title>FileUploadComponent</title>
<polygon fill="#ffffb3" stroke="#000000" points="3536.323,-122 3391.677,-122 3391.677,-86 3536.323,-86 3536.323,-122"/>
<text text-anchor="middle" x="3464" y="-99.8" font-family="Times,serif" font-size="14.00" fill="#000000">FileUploadComponent</text>
</g>
<!-- FileUploadComponent&#45;&gt;AppModule -->
<g id="edge8" class="edge">
<title>FileUploadComponent&#45;&gt;AppModule</title>
<path fill="none" stroke="#000000" d="M3464,-122.1686C3464,-141.0898 3464,-168 3464,-168 3464,-168 2496.8457,-168 2496.8457,-168"/>
<polygon fill="#000000" stroke="#000000" points="2496.8458,-164.5001 2486.8457,-168 2496.8457,-171.5001 2496.8458,-164.5001"/>
</g>
<!-- FooterComponent -->
<g id="node9" class="node">
<title>FooterComponent</title>
<polygon fill="#ffffb3" stroke="#000000" points="3373.8809,-122 3256.1191,-122 3256.1191,-86 3373.8809,-86 3373.8809,-122"/>
<text text-anchor="middle" x="3315" y="-99.8" font-family="Times,serif" font-size="14.00" fill="#000000">FooterComponent</text>
</g>
<!-- FooterComponent&#45;&gt;AppModule -->
<g id="edge9" class="edge">
<title>FooterComponent&#45;&gt;AppModule</title>
<path fill="none" stroke="#000000" d="M3315,-122.2667C3315,-140.5552 3315,-166 3315,-166 3315,-166 2496.6688,-166 2496.6688,-166"/>
<polygon fill="#000000" stroke="#000000" points="2496.6688,-162.5001 2486.6688,-166 2496.6688,-169.5001 2496.6688,-162.5001"/>
</g>
<!-- GeneralCardsComponent -->
<g id="node10" class="node">
<title>GeneralCardsComponent</title>
<polygon fill="#ffffb3" stroke="#000000" points="3238.2907,-122 3079.7093,-122 3079.7093,-86 3238.2907,-86 3238.2907,-122"/>
<text text-anchor="middle" x="3159" y="-99.8" font-family="Times,serif" font-size="14.00" fill="#000000">GeneralCardsComponent</text>
</g>
<!-- GeneralCardsComponent&#45;&gt;AppModule -->
<g id="edge10" class="edge">
<title>GeneralCardsComponent&#45;&gt;AppModule</title>
<path fill="none" stroke="#000000" d="M3159,-122.0225C3159,-139.3734 3159,-163 3159,-163 3159,-163 2496.7357,-163 2496.7357,-163"/>
<polygon fill="#000000" stroke="#000000" points="2496.7358,-159.5001 2486.7357,-163 2496.7357,-166.5001 2496.7358,-159.5001"/>
</g>
<!-- GroupComponent -->
<g id="node11" class="node">
<title>GroupComponent</title>
<polygon fill="#ffffb3" stroke="#000000" points="3061.5996,-122 2944.4004,-122 2944.4004,-86 3061.5996,-86 3061.5996,-122"/>
<text text-anchor="middle" x="3003" y="-99.8" font-family="Times,serif" font-size="14.00" fill="#000000">GroupComponent</text>
</g>
<!-- GroupComponent&#45;&gt;AppModule -->
<g id="edge11" class="edge">
<title>GroupComponent&#45;&gt;AppModule</title>
<path fill="none" stroke="#000000" d="M3003,-122.0352C3003,-138.7344 3003,-161 3003,-161 3003,-161 2496.9407,-161 2496.9407,-161"/>
<polygon fill="#000000" stroke="#000000" points="2496.9407,-157.5001 2486.9407,-161 2496.9407,-164.5001 2496.9407,-157.5001"/>
</g>
<!-- HeaderComponent -->
<g id="node12" class="node">
<title>HeaderComponent</title>
<polygon fill="#ffffb3" stroke="#000000" points="2926.7437,-122 2805.2563,-122 2805.2563,-86 2926.7437,-86 2926.7437,-122"/>
<text text-anchor="middle" x="2866" y="-99.8" font-family="Times,serif" font-size="14.00" fill="#000000">HeaderComponent</text>
</g>
<!-- HeaderComponent&#45;&gt;AppModule -->
<g id="edge12" class="edge">
<title>HeaderComponent&#45;&gt;AppModule</title>
<path fill="none" stroke="#000000" d="M2866,-122.0091C2866,-138.0494 2866,-159 2866,-159 2866,-159 2496.9062,-159 2496.9062,-159"/>
<polygon fill="#000000" stroke="#000000" points="2496.9063,-155.5001 2486.9062,-159 2496.9062,-162.5001 2496.9063,-155.5001"/>
</g>
<!-- HomeComponent -->
<g id="node13" class="node">
<title>HomeComponent</title>
<polygon fill="#ffffb3" stroke="#000000" points="2786.5451,-122 2671.4549,-122 2671.4549,-86 2786.5451,-86 2786.5451,-122"/>
<text text-anchor="middle" x="2729" y="-99.8" font-family="Times,serif" font-size="14.00" fill="#000000">HomeComponent</text>
</g>
<!-- HomeComponent&#45;&gt;AppModule -->
<g id="edge13" class="edge">
<title>HomeComponent&#45;&gt;AppModule</title>
<path fill="none" stroke="#000000" d="M2729,-122.1871C2729,-137.1824 2729,-156 2729,-156 2729,-156 2496.9052,-156 2496.9052,-156"/>
<polygon fill="#000000" stroke="#000000" points="2496.9052,-152.5001 2486.9052,-156 2496.9051,-159.5001 2496.9052,-152.5001"/>
</g>
<!-- LoginComponent -->
<g id="node14" class="node">
<title>LoginComponent</title>
<polygon fill="#ffffb3" stroke="#000000" points="2653.2758,-122 2538.7242,-122 2538.7242,-86 2653.2758,-86 2653.2758,-122"/>
<text text-anchor="middle" x="2596" y="-99.8" font-family="Times,serif" font-size="14.00" fill="#000000">LoginComponent</text>
</g>
<!-- LoginComponent&#45;&gt;AppModule -->
<g id="edge14" class="edge">
<title>LoginComponent&#45;&gt;AppModule</title>
<path fill="none" stroke="#000000" d="M2596,-122.0511C2596,-136.373 2596,-154 2596,-154 2596,-154 2496.6611,-154 2496.6611,-154"/>
<polygon fill="#000000" stroke="#000000" points="2496.6612,-150.5001 2486.6611,-154 2496.6611,-157.5001 2496.6612,-150.5001"/>
</g>
<!-- MapSettingsComponent -->
<g id="node15" class="node">
<title>MapSettingsComponent</title>
<polygon fill="#ffffb3" stroke="#000000" points="2521.1052,-122 2368.8948,-122 2368.8948,-86 2521.1052,-86 2521.1052,-122"/>
<text text-anchor="middle" x="2445" y="-99.8" font-family="Times,serif" font-size="14.00" fill="#000000">MapSettingsComponent</text>
</g>
<!-- MapSettingsComponent&#45;&gt;AppModule -->
<g id="edge15" class="edge">
<title>MapSettingsComponent&#45;&gt;AppModule</title>
<path fill="none" stroke="#000000" d="M2445,-122.1061C2445,-122.1061 2445,-140.991 2445,-140.991"/>
<polygon fill="#000000" stroke="#000000" points="2441.5001,-140.9909 2445,-150.991 2448.5001,-140.991 2441.5001,-140.9909"/>
</g>
<!-- MobiledashboardComponent -->
<g id="node16" class="node">
<title>MobiledashboardComponent</title>
<polygon fill="#ffffb3" stroke="#000000" points="2350.8075,-122 2171.1925,-122 2171.1925,-86 2350.8075,-86 2350.8075,-122"/>
<text text-anchor="middle" x="2261" y="-99.8" font-family="Times,serif" font-size="14.00" fill="#000000">MobiledashboardComponent</text>
</g>
<!-- MobiledashboardComponent&#45;&gt;AppModule -->
<g id="edge16" class="edge">
<title>MobiledashboardComponent&#45;&gt;AppModule</title>
<path fill="none" stroke="#000000" d="M2261,-122.0511C2261,-136.373 2261,-154 2261,-154 2261,-154 2393.2476,-154 2393.2476,-154"/>
<polygon fill="#000000" stroke="#000000" points="2393.2476,-157.5001 2403.2476,-154 2393.2475,-150.5001 2393.2476,-157.5001"/>
</g>
<!-- OurmissionComponent -->
<g id="node17" class="node">
<title>OurmissionComponent</title>
<polygon fill="#ffffb3" stroke="#000000" points="2153.161,-122 2006.839,-122 2006.839,-86 2153.161,-86 2153.161,-122"/>
<text text-anchor="middle" x="2080" y="-99.8" font-family="Times,serif" font-size="14.00" fill="#000000">OurmissionComponent</text>
</g>
<!-- OurmissionComponent&#45;&gt;AppModule -->
<g id="edge17" class="edge">
<title>OurmissionComponent&#45;&gt;AppModule</title>
<path fill="none" stroke="#000000" d="M2080,-122.1871C2080,-137.1824 2080,-156 2080,-156 2080,-156 2393.1299,-156 2393.1299,-156"/>
<polygon fill="#000000" stroke="#000000" points="2393.1299,-159.5001 2403.1299,-156 2393.1298,-152.5001 2393.1299,-159.5001"/>
</g>
<!-- OurtechnologyComponent -->
<g id="node18" class="node">
<title>OurtechnologyComponent</title>
<polygon fill="#ffffb3" stroke="#000000" points="1988.8103,-122 1823.1897,-122 1823.1897,-86 1988.8103,-86 1988.8103,-122"/>
<text text-anchor="middle" x="1906" y="-99.8" font-family="Times,serif" font-size="14.00" fill="#000000">OurtechnologyComponent</text>
</g>
<!-- OurtechnologyComponent&#45;&gt;AppModule -->
<g id="edge18" class="edge">
<title>OurtechnologyComponent&#45;&gt;AppModule</title>
<path fill="none" stroke="#000000" d="M1906,-122.0091C1906,-138.0494 1906,-159 1906,-159 1906,-159 2393.1541,-159 2393.1541,-159"/>
<polygon fill="#000000" stroke="#000000" points="2393.1541,-162.5001 2403.1541,-159 2393.154,-155.5001 2393.1541,-162.5001"/>
</g>
<!-- OverviewComponent -->
<g id="node19" class="node">
<title>OverviewComponent</title>
<polygon fill="#ffffb3" stroke="#000000" points="1805.0268,-122 1668.9732,-122 1668.9732,-86 1805.0268,-86 1805.0268,-122"/>
<text text-anchor="middle" x="1737" y="-99.8" font-family="Times,serif" font-size="14.00" fill="#000000">OverviewComponent</text>
</g>
<!-- OverviewComponent&#45;&gt;AppModule -->
<g id="edge19" class="edge">
<title>OverviewComponent&#45;&gt;AppModule</title>
<path fill="none" stroke="#000000" d="M1737,-122.0352C1737,-138.7344 1737,-161 1737,-161 1737,-161 2393.0935,-161 2393.0935,-161"/>
<polygon fill="#000000" stroke="#000000" points="2393.0935,-164.5001 2403.0935,-161 2393.0934,-157.5001 2393.0935,-164.5001"/>
</g>
<!-- RegisterComponent -->
<g id="node20" class="node">
<title>RegisterComponent</title>
<polygon fill="#ffffb3" stroke="#000000" points="1650.9846,-122 1523.0154,-122 1523.0154,-86 1650.9846,-86 1650.9846,-122"/>
<text text-anchor="middle" x="1587" y="-99.8" font-family="Times,serif" font-size="14.00" fill="#000000">RegisterComponent</text>
</g>
<!-- RegisterComponent&#45;&gt;AppModule -->
<g id="edge20" class="edge">
<title>RegisterComponent&#45;&gt;AppModule</title>
<path fill="none" stroke="#000000" d="M1587,-122.0225C1587,-139.3734 1587,-163 1587,-163 1587,-163 2393.3269,-163 2393.3269,-163"/>
<polygon fill="#000000" stroke="#000000" points="2393.327,-166.5001 2403.3269,-163 2393.3269,-159.5001 2393.327,-166.5001"/>
</g>
<!-- SettingsComponent -->
<g id="node21" class="node">
<title>SettingsComponent</title>
<polygon fill="#ffffb3" stroke="#000000" points="1505.4468,-122 1378.5532,-122 1378.5532,-86 1505.4468,-86 1505.4468,-122"/>
<text text-anchor="middle" x="1442" y="-99.8" font-family="Times,serif" font-size="14.00" fill="#000000">SettingsComponent</text>
</g>
<!-- SettingsComponent&#45;&gt;AppModule -->
<g id="edge21" class="edge">
<title>SettingsComponent&#45;&gt;AppModule</title>
<path fill="none" stroke="#000000" d="M1442,-122.2667C1442,-140.5552 1442,-166 1442,-166 1442,-166 2393.1793,-166 2393.1793,-166"/>
<polygon fill="#000000" stroke="#000000" points="2393.1793,-169.5001 2403.1793,-166 2393.1793,-162.5001 2393.1793,-169.5001"/>
</g>
<!-- SidebarComponent -->
<g id="node22" class="node">
<title>SidebarComponent</title>
<polygon fill="#ffffb3" stroke="#000000" points="1361.0954,-122 1236.9046,-122 1236.9046,-86 1361.0954,-86 1361.0954,-122"/>
<text text-anchor="middle" x="1299" y="-99.8" font-family="Times,serif" font-size="14.00" fill="#000000">SidebarComponent</text>
</g>
<!-- SidebarComponent&#45;&gt;AppModule -->
<g id="edge22" class="edge">
<title>SidebarComponent&#45;&gt;AppModule</title>
<path fill="none" stroke="#000000" d="M1299,-122.1686C1299,-141.0898 1299,-168 1299,-168 1299,-168 2393.1958,-168 2393.1958,-168"/>
<polygon fill="#000000" stroke="#000000" points="2393.1958,-171.5001 2403.1958,-168 2393.1958,-164.5001 2393.1958,-171.5001"/>
</g>
<!-- UploadImagesComponent -->
<g id="node23" class="node">
<title>UploadImagesComponent</title>
<polygon fill="#ffffb3" stroke="#000000" points="1218.4692,-122 1055.5308,-122 1055.5308,-86 1218.4692,-86 1218.4692,-122"/>
<text text-anchor="middle" x="1137" y="-99.8" font-family="Times,serif" font-size="14.00" fill="#000000">UploadImagesComponent</text>
</g>
<!-- UploadImagesComponent&#45;&gt;AppModule -->
<g id="edge23" class="edge">
<title>UploadImagesComponent&#45;&gt;AppModule</title>
<path fill="none" stroke="#000000" d="M1137,-122.308C1137,-142.1455 1137,-171 1137,-171 1137,-171 2393.3286,-171 2393.3286,-171"/>
<polygon fill="#000000" stroke="#000000" points="2393.3287,-174.5001 2403.3286,-171 2393.3286,-167.5001 2393.3287,-174.5001"/>
</g>
<!-- AppComponent  -->
<g id="node27" class="node">
<title>AppComponent </title>
<polygon fill="#80b1d3" stroke="#000000" points="2499.439,-252 2390.561,-252 2390.561,-216 2499.439,-216 2499.439,-252"/>
<text text-anchor="middle" x="2445" y="-229.8" font-family="Times,serif" font-size="14.00" fill="#000000">AppComponent </text>
</g>
<!-- AppModule&#45;&gt;AppComponent  -->
<g id="edge26" class="edge">
<title>AppModule&#45;&gt;AppComponent </title>
<path fill="none" stroke="#000000" stroke-dasharray="1,5" d="M2445,-187.1061C2445,-187.1061 2445,-205.991 2445,-205.991"/>
<polygon fill="#000000" stroke="#000000" points="2441.5001,-205.9909 2445,-215.991 2448.5001,-205.991 2441.5001,-205.9909"/>
</g>
<!-- AppRoutingModule -->
<g id="node25" class="node">
<title>AppRoutingModule</title>
<polygon fill="#8dd3c7" stroke="#000000" points="1032.2744,-122 1029.2744,-126 1008.2744,-126 1005.2744,-122 903.7256,-122 903.7256,-86 1032.2744,-86 1032.2744,-122"/>
<text text-anchor="middle" x="968" y="-99.8" font-family="Times,serif" font-size="14.00" fill="#000000">AppRoutingModule</text>
</g>
<!-- AppRoutingModule&#45;&gt;AppModule -->
<g id="edge24" class="edge">
<title>AppRoutingModule&#45;&gt;AppModule</title>
<path fill="none" stroke="#000000" d="M968,-122.1289C968,-142.5724 968,-173 968,-173 968,-173 2393.1755,-173 2393.1755,-173"/>
<polygon fill="#000000" stroke="#000000" points="2393.1755,-176.5001 2403.1755,-173 2393.1754,-169.5001 2393.1755,-176.5001"/>
</g>
<!-- MaterialModule -->
<g id="node26" class="node">
<title>MaterialModule</title>
<polygon fill="#8dd3c7" stroke="#000000" points="885.4706,-122 882.4706,-126 861.4706,-126 858.4706,-122 778.5294,-122 778.5294,-86 885.4706,-86 885.4706,-122"/>
<text text-anchor="middle" x="832" y="-99.8" font-family="Times,serif" font-size="14.00" fill="#000000">MaterialModule</text>
</g>
<!-- MaterialModule&#45;&gt;AppModule -->
<g id="edge25" class="edge">
<title>MaterialModule&#45;&gt;AppModule</title>
<path fill="none" stroke="#000000" d="M832,-122.2843C832,-143.3211 832,-175 832,-175 832,-175 2393.097,-175 2393.097,-175"/>
<polygon fill="#000000" stroke="#000000" points="2393.0971,-178.5001 2403.097,-175 2393.097,-171.5001 2393.0971,-178.5001"/>
</g>
<!-- BingApiLoaderService -->
<g id="node28" class="node">
<title>BingApiLoaderService</title>
<ellipse fill="#fdb462" stroke="#000000" cx="654" cy="-104" rx="100.7017" ry="18"/>
<text text-anchor="middle" x="654" y="-99.8" font-family="Times,serif" font-size="14.00" fill="#000000">BingApiLoaderService</text>
</g>
<!-- BingApiLoaderService&#45;&gt;AppModule -->
<g id="edge27" class="edge">
<title>BingApiLoaderService&#45;&gt;AppModule</title>
<path fill="none" stroke="#000000" d="M654,-122.2921C654,-144.2057 654,-178 654,-178 654,-178 2392.9308,-178 2392.9308,-178"/>
<polygon fill="#000000" stroke="#000000" points="2392.9308,-181.5001 2402.9308,-178 2392.9307,-174.5001 2392.9308,-181.5001"/>
</g>
<!-- ErrorInterceptor -->
<g id="node29" class="node">
<title>ErrorInterceptor</title>
<ellipse fill="#fdb462" stroke="#000000" cx="462" cy="-104" rx="73.5329" ry="18"/>
<text text-anchor="middle" x="462" y="-99.8" font-family="Times,serif" font-size="14.00" fill="#000000">ErrorInterceptor</text>
</g>
<!-- ErrorInterceptor&#45;&gt;AppModule -->
<g id="edge28" class="edge">
<title>ErrorInterceptor&#45;&gt;AppModule</title>
<path fill="none" stroke="#000000" d="M462,-122.0109C462,-144.4852 462,-180 462,-180 462,-180 2393.1247,-180 2393.1247,-180"/>
<polygon fill="#000000" stroke="#000000" points="2393.1247,-183.5001 2403.1247,-180 2393.1247,-176.5001 2393.1247,-183.5001"/>
</g>
<!-- JwtInterceptor -->
<g id="node30" class="node">
<title>JwtInterceptor</title>
<ellipse fill="#fdb462" stroke="#000000" cx="303" cy="-104" rx="66.6094" ry="18"/>
<text text-anchor="middle" x="303" y="-99.8" font-family="Times,serif" font-size="14.00" fill="#000000">JwtInterceptor</text>
</g>
<!-- JwtInterceptor&#45;&gt;AppModule -->
<g id="edge29" class="edge">
<title>JwtInterceptor&#45;&gt;AppModule</title>
<path fill="none" stroke="#000000" d="M303,-122.3228C303,-145.6602 303,-183 303,-183 303,-183 2393.1732,-183 2393.1732,-183"/>
<polygon fill="#000000" stroke="#000000" points="2393.1732,-186.5001 2403.1732,-183 2393.1731,-179.5001 2393.1732,-186.5001"/>
</g>
<!-- SiteConditionsService -->
<g id="node31" class="node">
<title>SiteConditionsService</title>
<ellipse fill="#fdb462" stroke="#000000" cx="121" cy="-104" rx="97.3069" ry="18"/>
<text text-anchor="middle" x="121" y="-99.8" font-family="Times,serif" font-size="14.00" fill="#000000">SiteConditionsService</text>
</g>
<!-- SiteConditionsService&#45;&gt;AppModule -->
<g id="edge30" class="edge">
<title>SiteConditionsService&#45;&gt;AppModule</title>
<path fill="none" stroke="#000000" d="M121,-122.3802C121,-146.2785 121,-185 121,-185 121,-185 2393.1789,-185 2393.1789,-185"/>
<polygon fill="#000000" stroke="#000000" points="2393.179,-188.5001 2403.1789,-185 2393.1789,-181.5001 2393.179,-188.5001"/>
</g>
</g>
</svg>
