<?xml version="1.0" encoding="UTF-8" standalone="no"?>
<!DOCTYPE svg PUBLIC "-//W3C//DTD SVG 1.1//EN"
 "http://www.w3.org/Graphics/SVG/1.1/DTD/svg11.dtd">
<!-- Generated by graphviz version 2.40.1 (20161225.0304)
 -->
<!-- Title: dependencies Pages: 1 -->
<svg width="1749pt" height="284pt"
 viewBox="0.00 0.00 1749.00 284.00" xmlns="http://www.w3.org/2000/svg" xmlns:xlink="http://www.w3.org/1999/xlink">
<g id="graph0" class="graph" transform="scale(1 1) rotate(0) translate(4 280)">
<title>dependencies</title>
<polygon fill="#ffffff" stroke="transparent" points="-4,4 -4,-280 1745,-280 1745,4 -4,4"/>
<text text-anchor="start" x="849.5091" y="-42.4" font-family="sans-serif" font-weight="bold" font-size="14.00" fill="#000000">Legend</text>
<polygon fill="#ffffb3" stroke="transparent" points="636.5,-10 636.5,-30 656.5,-30 656.5,-10 636.5,-10"/>
<text text-anchor="start" x="660.129" y="-15.4" font-family="sans-serif" font-size="14.00" fill="#000000"> &#160;Declarations</text>
<polygon fill="#8dd3c7" stroke="transparent" points="749.5,-10 749.5,-30 769.5,-30 769.5,-10 749.5,-10"/>
<text text-anchor="start" x="773.2251" y="-15.4" font-family="sans-serif" font-size="14.00" fill="#000000"> &#160;Module</text>
<polygon fill="#80b1d3" stroke="transparent" points="835.5,-10 835.5,-30 855.5,-30 855.5,-10 835.5,-10"/>
<text text-anchor="start" x="859.2812" y="-15.4" font-family="sans-serif" font-size="14.00" fill="#000000"> &#160;Bootstrap</text>
<polygon fill="#fdb462" stroke="transparent" points="932.5,-10 932.5,-30 952.5,-30 952.5,-10 932.5,-10"/>
<text text-anchor="start" x="956.1732" y="-15.4" font-family="sans-serif" font-size="14.00" fill="#000000"> &#160;Providers</text>
<polygon fill="#fb8072" stroke="transparent" points="1028.5,-10 1028.5,-30 1048.5,-30 1048.5,-10 1028.5,-10"/>
<text text-anchor="start" x="1052.2258" y="-15.4" font-family="sans-serif" font-size="14.00" fill="#000000"> &#160;Exports</text>
<g id="clust1" class="cluster">
<title>cluster_AppModule</title>
<polygon fill="none" stroke="#000000" stroke-dasharray="1,5" points="8,-70 8,-268 1733,-268 1733,-70 8,-70"/>
</g>
<g id="clust2" class="cluster">
<title>cluster_AppModule_declarations</title>
<polygon fill="none" stroke="#000000" points="1423,-78 1423,-130 1725,-130 1725,-78 1423,-78"/>
</g>
<g id="clust5" class="cluster">
<title>cluster_AppModule_imports</title>
<polygon fill="none" stroke="#000000" points="771,-78 771,-130 1415,-130 1415,-78 771,-78"/>
</g>
<g id="clust6" class="cluster">
<title>cluster_AppModule_exports</title>
<polygon fill="none" stroke="#000000" points="816,-208 816,-260 942,-260 942,-208 816,-208"/>
</g>
<g id="clust7" class="cluster">
<title>cluster_AppModule_bootstrap</title>
<polygon fill="none" stroke="#000000" points="950,-208 950,-260 1074,-260 1074,-208 950,-208"/>
</g>
<g id="clust8" class="cluster">
<title>cluster_AppModule_providers</title>
<polygon fill="none" stroke="#000000" points="16,-78 16,-130 763,-130 763,-78 16,-78"/>
</g>
<!-- AppComponent -->
<g id="node1" class="node">
<title>AppComponent</title>
<polygon fill="#ffffb3" stroke="#000000" points="1716.9399,-122 1611.0601,-122 1611.0601,-86 1716.9399,-86 1716.9399,-122"/>
<text text-anchor="middle" x="1664" y="-99.8" font-family="Times,serif" font-size="14.00" fill="#000000">AppComponent</text>
</g>
<!-- AppModule -->
<g id="node3" class="node">
<title>AppModule</title>
<polygon fill="#8dd3c7" stroke="#000000" points="986.6571,-187 983.6571,-191 962.6571,-191 959.6571,-187 903.3429,-187 903.3429,-151 986.6571,-151 986.6571,-187"/>
<text text-anchor="middle" x="945" y="-164.8" font-family="Times,serif" font-size="14.00" fill="#000000">AppModule</text>
</g>
<!-- AppComponent&#45;&gt;AppModule -->
<g id="edge1" class="edge">
<title>AppComponent&#45;&gt;AppModule</title>
<path fill="none" stroke="#000000" d="M1664,-122.2479C1664,-145.0179 1664,-181 1664,-181 1664,-181 996.7643,-181 996.7643,-181"/>
<polygon fill="#000000" stroke="#000000" points="996.7643,-177.5001 986.7643,-181 996.7642,-184.5001 996.7643,-177.5001"/>
</g>
<!-- UploadImagesComponent -->
<g id="node2" class="node">
<title>UploadImagesComponent</title>
<polygon fill="#ffffb3" stroke="#000000" points="1593.4692,-122 1430.5308,-122 1430.5308,-86 1593.4692,-86 1593.4692,-122"/>
<text text-anchor="middle" x="1512" y="-99.8" font-family="Times,serif" font-size="14.00" fill="#000000">UploadImagesComponent</text>
</g>
<!-- UploadImagesComponent&#45;&gt;AppModule -->
<g id="edge2" class="edge">
<title>UploadImagesComponent&#45;&gt;AppModule</title>
<path fill="none" stroke="#000000" d="M1512,-122.2843C1512,-143.3211 1512,-175 1512,-175 1512,-175 996.6929,-175 996.6929,-175"/>
<polygon fill="#000000" stroke="#000000" points="996.6929,-171.5001 986.6929,-175 996.6928,-178.5001 996.6929,-171.5001"/>
</g>
<!-- MaterialModule  -->
<g id="node9" class="node">
<title>MaterialModule </title>
<polygon fill="#fb8072" stroke="#000000" points="934.4716,-252 823.5284,-252 823.5284,-216 934.4716,-216 934.4716,-252"/>
<text text-anchor="middle" x="879" y="-229.8" font-family="Times,serif" font-size="14.00" fill="#000000">MaterialModule </text>
</g>
<!-- AppModule&#45;&gt;MaterialModule  -->
<g id="edge8" class="edge">
<title>AppModule&#45;&gt;MaterialModule </title>
<path fill="none" stroke="#000000" stroke-dasharray="5,2" d="M918.7036,-187.1061C918.7036,-187.1061 918.7036,-205.991 918.7036,-205.991"/>
<polygon fill="#000000" stroke="#000000" points="915.2036,-205.9909 918.7036,-215.991 922.2036,-205.991 915.2036,-205.9909"/>
</g>
<!-- AppComponent  -->
<g id="node10" class="node">
<title>AppComponent </title>
<polygon fill="#80b1d3" stroke="#000000" points="1066.439,-252 957.561,-252 957.561,-216 1066.439,-216 1066.439,-252"/>
<text text-anchor="middle" x="1012" y="-229.8" font-family="Times,serif" font-size="14.00" fill="#000000">AppComponent </text>
</g>
<!-- AppModule&#45;&gt;AppComponent  -->
<g id="edge9" class="edge">
<title>AppModule&#45;&gt;AppComponent </title>
<path fill="none" stroke="#000000" stroke-dasharray="1,5" d="M972.1794,-187.1061C972.1794,-187.1061 972.1794,-205.991 972.1794,-205.991"/>
<polygon fill="#000000" stroke="#000000" points="968.6794,-205.9909 972.1794,-215.991 975.6794,-205.991 968.6794,-205.9909"/>
</g>
<!-- AppRoutingModule -->
<g id="node4" class="node">
<title>AppRoutingModule</title>
<polygon fill="#8dd3c7" stroke="#000000" points="1407.2744,-122 1404.2744,-126 1383.2744,-126 1380.2744,-122 1278.7256,-122 1278.7256,-86 1407.2744,-86 1407.2744,-122"/>
<text text-anchor="middle" x="1343" y="-99.8" font-family="Times,serif" font-size="14.00" fill="#000000">AppRoutingModule</text>
</g>
<!-- AppRoutingModule&#45;&gt;AppModule -->
<g id="edge3" class="edge">
<title>AppRoutingModule&#45;&gt;AppModule</title>
<path fill="none" stroke="#000000" d="M1343,-122.1061C1343,-141.3391 1343,-169 1343,-169 1343,-169 996.8407,-169 996.8407,-169"/>
<polygon fill="#000000" stroke="#000000" points="996.8408,-165.5001 986.8407,-169 996.8407,-172.5001 996.8408,-165.5001"/>
</g>
<!-- DashboardModule -->
<g id="node5" class="node">
<title>DashboardModule</title>
<polygon fill="#8dd3c7" stroke="#000000" points="1261.191,-122 1258.191,-126 1237.191,-126 1234.191,-122 1140.809,-122 1140.809,-86 1261.191,-86 1261.191,-122"/>
<text text-anchor="middle" x="1201" y="-99.8" font-family="Times,serif" font-size="14.00" fill="#000000">DashboardModule</text>
</g>
<!-- DashboardModule&#45;&gt;AppModule -->
<g id="edge4" class="edge">
<title>DashboardModule&#45;&gt;AppModule</title>
<path fill="none" stroke="#000000" d="M1201,-122.0225C1201,-139.3734 1201,-163 1201,-163 1201,-163 996.7006,-163 996.7006,-163"/>
<polygon fill="#000000" stroke="#000000" points="996.7006,-159.5001 986.7006,-163 996.7005,-166.5001 996.7006,-159.5001"/>
</g>
<!-- SharedModule -->
<g id="node6" class="node">
<title>SharedModule</title>
<polygon fill="#8dd3c7" stroke="#000000" points="1123.4231,-122 1120.4231,-126 1099.4231,-126 1096.4231,-122 1024.5769,-122 1024.5769,-86 1123.4231,-86 1123.4231,-122"/>
<text text-anchor="middle" x="1074" y="-99.8" font-family="Times,serif" font-size="14.00" fill="#000000">SharedModule</text>
</g>
<!-- SharedModule&#45;&gt;AppModule -->
<g id="edge5" class="edge">
<title>SharedModule&#45;&gt;AppModule</title>
<path fill="none" stroke="#000000" d="M1045.6292,-122.2396C1045.6292,-137.5706 1045.6292,-157 1045.6292,-157 1045.6292,-157 996.8016,-157 996.8016,-157"/>
<polygon fill="#000000" stroke="#000000" points="996.8017,-153.5001 986.8016,-157 996.8016,-160.5001 996.8017,-153.5001"/>
</g>
<!-- StaticPagesModule -->
<g id="node7" class="node">
<title>StaticPagesModule</title>
<polygon fill="#8dd3c7" stroke="#000000" points="1007.0898,-122 1004.0898,-126 983.0898,-126 980.0898,-122 882.9102,-122 882.9102,-86 1007.0898,-86 1007.0898,-122"/>
<text text-anchor="middle" x="945" y="-99.8" font-family="Times,serif" font-size="14.00" fill="#000000">StaticPagesModule</text>
</g>
<!-- StaticPagesModule&#45;&gt;AppModule -->
<g id="edge6" class="edge">
<title>StaticPagesModule&#45;&gt;AppModule</title>
<path fill="none" stroke="#000000" d="M945,-122.1061C945,-122.1061 945,-140.991 945,-140.991"/>
<polygon fill="#000000" stroke="#000000" points="941.5001,-140.9909 945,-150.991 948.5001,-140.991 941.5001,-140.9909"/>
</g>
<!-- UserModule -->
<g id="node8" class="node">
<title>UserModule</title>
<polygon fill="#8dd3c7" stroke="#000000" points="864.9762,-122 861.9762,-126 840.9762,-126 837.9762,-122 779.0238,-122 779.0238,-86 864.9762,-86 864.9762,-122"/>
<text text-anchor="middle" x="822" y="-99.8" font-family="Times,serif" font-size="14.00" fill="#000000">UserModule</text>
</g>
<!-- UserModule&#45;&gt;AppModule -->
<g id="edge7" class="edge">
<title>UserModule&#45;&gt;AppModule</title>
<path fill="none" stroke="#000000" d="M844.3764,-122.2396C844.3764,-137.5706 844.3764,-157 844.3764,-157 844.3764,-157 893.2007,-157 893.2007,-157"/>
<polygon fill="#000000" stroke="#000000" points="893.2007,-160.5001 903.2007,-157 893.2007,-153.5001 893.2007,-160.5001"/>
</g>
<!-- BingApiLoaderService -->
<g id="node11" class="node">
<title>BingApiLoaderService</title>
<ellipse fill="#fdb462" stroke="#000000" cx="654" cy="-104" rx="100.7017" ry="18"/>
<text text-anchor="middle" x="654" y="-99.8" font-family="Times,serif" font-size="14.00" fill="#000000">BingApiLoaderService</text>
</g>
<!-- BingApiLoaderService&#45;&gt;AppModule -->
<g id="edge10" class="edge">
<title>BingApiLoaderService&#45;&gt;AppModule</title>
<path fill="none" stroke="#000000" d="M654,-122.0225C654,-139.3734 654,-163 654,-163 654,-163 893.3068,-163 893.3068,-163"/>
<polygon fill="#000000" stroke="#000000" points="893.3068,-166.5001 903.3068,-163 893.3068,-159.5001 893.3068,-166.5001"/>
</g>
<!-- ErrorInterceptor -->
<g id="node12" class="node">
<title>ErrorInterceptor</title>
<ellipse fill="#fdb462" stroke="#000000" cx="462" cy="-104" rx="73.5329" ry="18"/>
<text text-anchor="middle" x="462" y="-99.8" font-family="Times,serif" font-size="14.00" fill="#000000">ErrorInterceptor</text>
</g>
<!-- ErrorInterceptor&#45;&gt;AppModule -->
<g id="edge11" class="edge">
<title>ErrorInterceptor&#45;&gt;AppModule</title>
<path fill="none" stroke="#000000" d="M462,-122.1061C462,-141.3391 462,-169 462,-169 462,-169 892.9819,-169 892.9819,-169"/>
<polygon fill="#000000" stroke="#000000" points="892.9819,-172.5001 902.9819,-169 892.9818,-165.5001 892.9819,-172.5001"/>
</g>
<!-- JwtInterceptor -->
<g id="node13" class="node">
<title>JwtInterceptor</title>
<ellipse fill="#fdb462" stroke="#000000" cx="303" cy="-104" rx="66.6094" ry="18"/>
<text text-anchor="middle" x="303" y="-99.8" font-family="Times,serif" font-size="14.00" fill="#000000">JwtInterceptor</text>
</g>
<!-- JwtInterceptor&#45;&gt;AppModule -->
<g id="edge12" class="edge">
<title>JwtInterceptor&#45;&gt;AppModule</title>
<path fill="none" stroke="#000000" d="M303,-122.2843C303,-143.3211 303,-175 303,-175 303,-175 892.8766,-175 892.8766,-175"/>
<polygon fill="#000000" stroke="#000000" points="892.8766,-178.5001 902.8766,-175 892.8766,-171.5001 892.8766,-178.5001"/>
</g>
<!-- SiteConditionsService -->
<g id="node14" class="node">
<title>SiteConditionsService</title>
<ellipse fill="#fdb462" stroke="#000000" cx="121" cy="-104" rx="97.3069" ry="18"/>
<text text-anchor="middle" x="121" y="-99.8" font-family="Times,serif" font-size="14.00" fill="#000000">SiteConditionsService</text>
</g>
<!-- SiteConditionsService&#45;&gt;AppModule -->
<g id="edge13" class="edge">
<title>SiteConditionsService&#45;&gt;AppModule</title>
<path fill="none" stroke="#000000" d="M121,-122.2479C121,-145.0179 121,-181 121,-181 121,-181 893.2894,-181 893.2894,-181"/>
<polygon fill="#000000" stroke="#000000" points="893.2894,-184.5001 903.2894,-181 893.2893,-177.5001 893.2894,-184.5001"/>
</g>
</g>
</svg>
