<?xml version="1.0" encoding="UTF-8" standalone="no"?>
<!DOCTYPE svg PUBLIC "-//W3C//DTD SVG 1.1//EN"
 "http://www.w3.org/Graphics/SVG/1.1/DTD/svg11.dtd">
<!-- Generated by graphviz version 2.40.1 (20161225.0304)
 -->
<!-- Title: dependencies Pages: 1 -->
<svg width="800pt" height="211pt"
 viewBox="0.00 0.00 800.00 211.00" xmlns="http://www.w3.org/2000/svg" xmlns:xlink="http://www.w3.org/1999/xlink">
<g id="graph0" class="graph" transform="scale(1 1) rotate(0) translate(4 207)">
<title>dependencies</title>
<polygon fill="#ffffff" stroke="transparent" points="-4,4 -4,-207 796,-207 796,4 -4,4"/>
<text text-anchor="start" x="375.0091" y="-42.4" font-family="sans-serif" font-weight="bold" font-size="14.00" fill="#000000">Legend</text>
<polygon fill="#ffffb3" stroke="transparent" points="162,-10 162,-30 182,-30 182,-10 162,-10"/>
<text text-anchor="start" x="185.629" y="-15.4" font-family="sans-serif" font-size="14.00" fill="#000000"> &#160;Declarations</text>
<polygon fill="#8dd3c7" stroke="transparent" points="275,-10 275,-30 295,-30 295,-10 275,-10"/>
<text text-anchor="start" x="298.7251" y="-15.4" font-family="sans-serif" font-size="14.00" fill="#000000"> &#160;Module</text>
<polygon fill="#80b1d3" stroke="transparent" points="361,-10 361,-30 381,-30 381,-10 361,-10"/>
<text text-anchor="start" x="384.7812" y="-15.4" font-family="sans-serif" font-size="14.00" fill="#000000"> &#160;Bootstrap</text>
<polygon fill="#fdb462" stroke="transparent" points="458,-10 458,-30 478,-30 478,-10 458,-10"/>
<text text-anchor="start" x="481.6732" y="-15.4" font-family="sans-serif" font-size="14.00" fill="#000000"> &#160;Providers</text>
<polygon fill="#fb8072" stroke="transparent" points="554,-10 554,-30 574,-30 574,-10 554,-10"/>
<text text-anchor="start" x="577.7258" y="-15.4" font-family="sans-serif" font-size="14.00" fill="#000000"> &#160;Exports</text>
<g id="clust1" class="cluster">
<title>cluster_StaticPagesModule</title>
<polygon fill="none" stroke="#000000" stroke-dasharray="1,5" points="8,-70 8,-195 784,-195 784,-70 8,-70"/>
</g>
<g id="clust2" class="cluster">
<title>cluster_StaticPagesModule_declarations</title>
<polygon fill="none" stroke="#000000" points="146,-78 146,-130 776,-130 776,-78 146,-78"/>
</g>
<g id="clust7" class="cluster">
<title>cluster_StaticPagesModule_imports</title>
<polygon fill="none" stroke="#000000" points="16,-78 16,-130 138,-130 138,-78 16,-78"/>
</g>
<!-- AboutUsComponent -->
<g id="node1" class="node">
<title>AboutUsComponent</title>
<polygon fill="#ffffb3" stroke="#000000" points="767.8809,-122 636.1191,-122 636.1191,-86 767.8809,-86 767.8809,-122"/>
<text text-anchor="middle" x="702" y="-99.8" font-family="Times,serif" font-size="14.00" fill="#000000">AboutUsComponent</text>
</g>
<!-- StaticPagesModule -->
<g id="node5" class="node">
<title>StaticPagesModule</title>
<polygon fill="#8dd3c7" stroke="#000000" points="473.0898,-187 470.0898,-191 449.0898,-191 446.0898,-187 348.9102,-187 348.9102,-151 473.0898,-151 473.0898,-187"/>
<text text-anchor="middle" x="411" y="-164.8" font-family="Times,serif" font-size="14.00" fill="#000000">StaticPagesModule</text>
</g>
<!-- AboutUsComponent&#45;&gt;StaticPagesModule -->
<g id="edge1" class="edge">
<title>AboutUsComponent&#45;&gt;StaticPagesModule</title>
<path fill="none" stroke="#000000" d="M702,-122.2843C702,-143.3211 702,-175 702,-175 702,-175 483.0699,-175 483.0699,-175"/>
<polygon fill="#000000" stroke="#000000" points="483.0699,-171.5001 473.0699,-175 483.0698,-178.5001 483.0699,-171.5001"/>
</g>
<!-- HomeComponent -->
<g id="node2" class="node">
<title>HomeComponent</title>
<polygon fill="#ffffb3" stroke="#000000" points="617.5451,-122 502.4549,-122 502.4549,-86 617.5451,-86 617.5451,-122"/>
<text text-anchor="middle" x="560" y="-99.8" font-family="Times,serif" font-size="14.00" fill="#000000">HomeComponent</text>
</g>
<!-- HomeComponent&#45;&gt;StaticPagesModule -->
<g id="edge2" class="edge">
<title>HomeComponent&#45;&gt;StaticPagesModule</title>
<path fill="none" stroke="#000000" d="M560,-122.0225C560,-139.3734 560,-163 560,-163 560,-163 483.3261,-163 483.3261,-163"/>
<polygon fill="#000000" stroke="#000000" points="483.3261,-159.5001 473.3261,-163 483.326,-166.5001 483.3261,-159.5001"/>
</g>
<!-- OurmissionComponent -->
<g id="node3" class="node">
<title>OurmissionComponent</title>
<polygon fill="#ffffb3" stroke="#000000" points="484.161,-122 337.839,-122 337.839,-86 484.161,-86 484.161,-122"/>
<text text-anchor="middle" x="411" y="-99.8" font-family="Times,serif" font-size="14.00" fill="#000000">OurmissionComponent</text>
</g>
<!-- OurmissionComponent&#45;&gt;StaticPagesModule -->
<g id="edge3" class="edge">
<title>OurmissionComponent&#45;&gt;StaticPagesModule</title>
<path fill="none" stroke="#000000" d="M411,-122.1061C411,-122.1061 411,-140.991 411,-140.991"/>
<polygon fill="#000000" stroke="#000000" points="407.5001,-140.9909 411,-150.991 414.5001,-140.991 407.5001,-140.9909"/>
</g>
<!-- OurtechnologyComponent -->
<g id="node4" class="node">
<title>OurtechnologyComponent</title>
<polygon fill="#ffffb3" stroke="#000000" points="319.8103,-122 154.1897,-122 154.1897,-86 319.8103,-86 319.8103,-122"/>
<text text-anchor="middle" x="237" y="-99.8" font-family="Times,serif" font-size="14.00" fill="#000000">OurtechnologyComponent</text>
</g>
<!-- OurtechnologyComponent&#45;&gt;StaticPagesModule -->
<g id="edge4" class="edge">
<title>OurtechnologyComponent&#45;&gt;StaticPagesModule</title>
<path fill="none" stroke="#000000" d="M237,-122.0225C237,-139.3734 237,-163 237,-163 237,-163 338.6735,-163 338.6735,-163"/>
<polygon fill="#000000" stroke="#000000" points="338.6735,-166.5001 348.6735,-163 338.6734,-159.5001 338.6735,-166.5001"/>
</g>
<!-- MaterialModule -->
<g id="node6" class="node">
<title>MaterialModule</title>
<polygon fill="#8dd3c7" stroke="#000000" points="130.4706,-122 127.4706,-126 106.4706,-126 103.4706,-122 23.5294,-122 23.5294,-86 130.4706,-86 130.4706,-122"/>
<text text-anchor="middle" x="77" y="-99.8" font-family="Times,serif" font-size="14.00" fill="#000000">MaterialModule</text>
</g>
<!-- MaterialModule&#45;&gt;StaticPagesModule -->
<g id="edge5" class="edge">
<title>MaterialModule&#45;&gt;StaticPagesModule</title>
<path fill="none" stroke="#000000" d="M77,-122.2843C77,-143.3211 77,-175 77,-175 77,-175 338.569,-175 338.569,-175"/>
<polygon fill="#000000" stroke="#000000" points="338.569,-178.5001 348.569,-175 338.5689,-171.5001 338.569,-178.5001"/>
</g>
</g>
</svg>
